<?xml version="1.0" encoding="UTF-8" standalone="yes"?>
<!-- Created with sK1/UniConvertor (http://sk1project.org/) -->
<svg xmlns="http://www.w3.org/2000/svg" xmlns:xlink="http://www.w3.org/1999/xlink"
  width="161.6pt" height="161.6pt" viewBox="0 0 161.6 161.6"
  fill-rule="evenodd">
<g>
<path style="stroke:none; fill:#fcfcfc" d="M 0 0L 0 161.6L 161.6 161.6L 161.6 0L 0 0z"/>
<path style="stroke:none; fill:#ded2c1" d="M 70.4 17.6L 70.4 18.4C 81.6336 18.4 89.812 20.2076 98.4 28L 99.2 28L 100 28C 100.436 26.6919 100.292 26.836 101.6 26.4L 101.6 25.6C 100.292 25.1639 100.436 25.3082 100 24L 103.2 23.2C 93.232 18.4004 81.2456 17.6 70.4 17.6z"/>
<path style="stroke:none; fill:#c2b8b0" d="M 48.8 32C 52.6374 30.9219 62.6337 22.4666 65.6 25.6C 67.0958 24.6167 67.3788 24.1054 68 22.4C 70.2343 22.7623 70.909 23.2007 71.2 20.8L 72 20.8C 72.9013 22.4047 73.4987 22.4047 74.4 20.8C 76.7225 21.2917 77.0749 21.1723 78.4 19.2C 79.1886 20.3828 79.2 20.1626 79.2 21.6C 84.9328 20.8874 87.4072 23.1297 92.8 24C 82.1904 12.3163 54.7555 17.9327 48.8 32z"/>
<path style="stroke:none; fill:#ded2c1" d="M 62.4 19.2L 62.4 20L 65.6 20C 64.3951 19.4536 63.7482 19.3393 62.4 19.2z"/>
<path style="stroke:none; fill:#c5b08e" d="M 77.6 19.2L 77.6 24C 80.1352 24.2421 81.0896 23.8398 83.2 22.4L 82.4 25.6C 84.0368 24.6349 85.128 23.8018 86.4 22.4C 89.5912 24.9716 93.484 26.9261 97.6 27.2L 98.4 30.4L 99.2 30.4C 97.3328 21.7001 83.4024 22.1012 77.6 19.2z"/>
<path style="stroke:none; fill:#ac9f8a" d="M 71.2 20.8C 71.2 22.2374 71.1886 22.0172 70.4 23.2C 69.4014 22.6522 69.1612 22.601 68 22.4C 67.2359 23.8137 66.7468 24.486 65.6 25.6C 65.399 24.4388 65.3478 24.1986 64.8 23.2C 57.7565 26.826 51.5779 30.8076 44 33.2605C 40.6333 34.3502 36.4282 33.6716 34.4 36.8C 38.824 35.3976 43.3775 34.7648 48 34.4L 47.2 38.4C 51.3877 37.3787 56.2694 32.5165 58.4 28.8C 61.4982 29.5546 66.9968 26.7398 68.8 24C 69.9847 26.2002 71.4025 26.8419 72 24C 74.2946 24.5434 76.084 24.0556 78.4 24.8L 78.4 20.8L 74.4 20.8C 72.9781 21.5878 72.7329 21.4722 71.2 20.8M 82.4 22.4L 79.2 24.8L 79.2 25.6C 84.856 27.0399 91.9672 30.6184 97.6 30.4L 99.2 33.6L 100 33.6L 100.8 33.6L 100.8 32L 104.8 32.8L 104.8 32C 101.794 30.6952 99.2296 30.1839 97.6 27.2C 93.54 26.6798 89.8656 24.5163 86.4 22.4L 82.4 25.6C 82.6472 24.1935 82.7248 23.7274 82.4 22.4z"/>
<path style="stroke:none; fill:#9c8a80" d="M 72 24C 71.2806 25.6989 71.2989 25.6806 69.6 26.4C 69.6 24.9626 69.5886 25.1828 68.8 24C 68.2522 24.9986 68.201 25.2387 68 26.4C 64.497 26.591 61.8042 28.5236 58.4 28.8C 56.4002 30.9604 54.1272 32.5116 52.8 35.2L 57.6 33.6C 57.6 32.1626 57.5885 32.3828 56.8 31.2C 60.5183 30.8967 64.2154 29.0424 66.4 32.8L 71.2 31.2C 71.2 29.7626 71.1886 29.9828 70.4 28.8C 74.417 27.9536 78.3536 27.7271 82.4 27.2C 83.184 28.6266 83.1264 28.4754 84.8 28.8C 83.3176 26.6086 81.1352 25.7372 79.2 24C 77.884 23.8582 77.8826 23.8871 76.8 23.2C 75.1246 23.6833 73.7361 24.0186 72 24z"/>
<path style="stroke:none; fill:#c2b8b0" d="M 100 24C 100.614 25.0513 100.549 24.9857 101.6 25.6L 101.6 26.4L 98.4 28L 98.4 28.8L 99.2 30.4C 102.998 29.9758 106.626 30.4982 110.4 29.6C 111.451 30.8943 111.902 30.9547 113.6 31.2C 113.143 29.9899 112.909 29.2582 112.8 28C 111.192 26.9909 109.778 26.2482 108 25.6L 108.8 29.6C 106.99 28.9014 106.599 28.9003 104.8 29.6L 106.4 25.6L 102.4 26.4C 103.166 25.1866 103.51 24.5292 104 23.2C 102.498 23.3407 101.441 23.5506 100 24z"/>
<path style="stroke:none; fill:#ded2c1" d="M 102.4 26.4L 106.4 25.6L 104.8 29.6C 106.108 29.164 105.964 29.3081 106.4 28C 107.349 28.8285 107.683 29.071 108.8 29.6L 108.8 24.8C 105.99 24.5326 104.47 24.4097 102.4 26.4z"/>
<path style="stroke:none; fill:#87745c" d="M 70.4 28.8L 71.2 31.2L 66.4 32.8C 64.9163 28.3735 60.43 30.7112 56.8 31.2L 57.6 33.6C 52.4458 34.5355 44.9168 40.2278 44 45.6L 48 44.8C 46.8152 46.0786 46.3508 46.4866 44.8 47.2L 44.8 48C 47.9728 48.1846 50.5737 48.2709 53.6 47.2L 53.6 46.4L 50.4 44.8C 52.2534 44.0324 53.2039 43.8533 55.2 44C 55.2293 41.5534 54.5555 39.8514 53.6 37.6L 54.4 37.6L 56 40.8L 56.8 40.8L 56 37.6L 58.4 38.4C 58.4 36.9626 58.3886 37.1828 57.6 36L 59.2 36L 58.4 32L 63.2 31.2C 63.9194 32.8989 63.9011 32.8806 65.6 33.6L 64.8 38.4L 68.8 39.2C 69.4482 36.2422 70.7741 33.9202 72 31.2L 78.4 33.6L 79.2 30.4L 80 30.4C 80.9872 32.6038 82.04 34.3859 82.4 36.8L 83.2 36.8C 84.1456 34.8562 84.584 33.3499 84.8 31.2L 87.2 31.2L 87.2 34.4C 88.6264 33.6158 88.4752 33.6739 88.8 32L 93.6 36L 94.4 32.8L 98.4 32.8L 98.4 37.6L 100 37.6L 100 39.2L 97.6 40L 97.6 40.8C 99.6296 41.3242 100.838 41.8205 102.4 43.2C 100.446 43.2876 98.7016 43.5424 96.8 44C 96.016 42.5734 96.0736 42.7246 94.4 42.4C 94.4 45.8998 97.3472 45.8112 96.8 48L 102.4 48L 102.4 52.8C 104.162 52.0048 104.038 52.2641 104 50.4C 105.35 50.5746 105.853 50.5791 107.2 50.4C 106.202 49.8522 105.962 49.801 104.8 49.6L 105.6 44.8C 104.162 44.8 104.383 44.7886 103.2 44C 103.675 42.6466 103.842 41.4405 104 40L 100 36.8C 100.789 35.6172 100.8 35.8374 100.8 34.4C 99.4752 33.1603 98.5624 31.9435 97.6 30.4C 92.8584 30.4591 86.4536 29.6364 82.4 27.2C 78.1879 27.4961 74.4839 27.5173 70.4 28.8z"/>
<path style="stroke:none; fill:#99875f" d="M 87.2 28.8C 89.4816 30.2887 91.1768 30.2702 92.8 28C 90.5712 27.8053 89.2696 27.9585 87.2 28.8z"/>
<path style="stroke:none; fill:#ded2c1" d="M 49.6 28C 47.933 29.5555 46.6565 30.7996 45.6 32.8C 47.9346 31.8457 50.3392 30.8046 49.6 28z"/>
<path style="stroke:none; fill:#ac9f8a" d="M 112 28.8C 112.978 29.7562 113.136 29.8531 114.4 30.4C 113.422 29.4438 113.264 29.3469 112 28.8z"/>
<path style="stroke:none; fill:#c5b08e" d="M 100 29.6L 100 30.4C 106.288 32.3932 114.256 33.9526 120.8 34.4C 119.39 42.0269 126.132 39.2357 129.963 42.142C 133.291 44.6658 133.424 47.9089 138.4 47.2C 135.054 42.4492 131.026 37.585 124.8 38.4C 125.589 37.2172 125.6 37.4374 125.6 36L 122.4 36C 121.319 32.7304 117.766 31.7809 115.2 29.6L 114.4 29.6C 112.471 30.4575 112.155 30.6758 110.4 29.6C 106.734 30.2781 103.67 30.0634 100 29.6z"/>
<path style="stroke:none; fill:#6c5c30" d="M 79.2 30.4L 78.4 33.6L 72 31.2C 70.2981 33.8627 69.239 36.0472 68.8 39.2C 65.4244 38.211 63.2278 38.8471 60 40C 61.0579 45.0159 56.0279 51.3174 61.6 54.4C 61.1686 50.4997 62.3718 48.4156 66.4 48C 65.6788 46.462 65.539 46.401 64 45.6L 66.4 43.2C 67.0798 46.3885 71.7208 47.8446 74.4 49.6C 76.2542 43.7387 75.1982 39.897 72.8 34.4C 75.4762 35.7472 76.3406 37.0413 76.8 40C 77.8514 39.3857 77.7857 39.4514 78.4 38.4L 79.2 38.4C 79.401 39.5613 79.4522 39.8013 80 40.8L 80.8 40.8C 82.056 39.2972 83.2424 38.5706 83.2 36.8L 88.8 36.8C 88.1056 34.9163 87.5408 33.1753 87.2 31.2L 84.8 31.2C 84.4592 33.1753 83.8944 34.9163 83.2 36.8L 82.4 36.8C 82.18 33.8934 81.3504 32.3587 79.2 30.4z"/>
<path style="stroke:none; fill:#856639" d="M 58.4 32C 58.5407 33.5025 58.7506 34.5595 59.2 36L 57.6 36L 58.4 38.4C 57.2172 37.6114 57.4374 37.6 56 37.6L 56.8 40.8L 56 40.8L 54.4 37.6L 53.6 37.6C 54.2375 39.7746 55.0877 41.7315 55.2 44C 53.061 43.5666 52.2154 43.594 50.4 44.8C 53.0313 46.815 55.4498 48.8634 58.4 50.4C 59.7315 46.7691 61.1004 43.8352 60 40C 63.6215 39.0883 65.0078 37.2356 65.6 33.6C 64.4347 32.7173 64.0827 32.3653 63.2 31.2L 58.4 32z"/>
<path style="stroke:none; fill:#ac9f8a" d="M 106.4 32L 106.4 32.8C 110.942 33.922 115.882 34.4942 120 36.8L 120.8 34.4C 115.942 33.5093 111.368 31.4733 106.4 32z"/>
<path style="stroke:none; fill:#6c5c30" d="M 88.8 32C 89.0312 33.907 88.728 33.9096 90.4 33.6C 91.0496 35.4949 91.8176 37.21 92 39.2C 92.8552 41.007 92.5064 42.0178 92 44C 93.9208 43.6052 95.0824 43.092 96.8 44L 102.4 43.2C 101.06 41.4233 99.7944 41.1506 97.6 40.8L 97.6 40C 99.0376 40 98.8168 39.9886 100 39.2C 99.3856 38.1486 99.4512 38.2143 98.4 37.6C 98.5968 35.9033 98.5848 34.5006 98.4 32.8L 94.4 32.8L 93.6 36C 92.1008 34.3215 90.7656 33.0923 88.8 32z"/>
<path style="stroke:none; fill:#9c8a80" d="M 100.8 32C 100.364 33.3081 100.508 33.1639 99.2 33.6L 99.2 34.4C 99.8872 35.4826 99.8584 35.484 100 36.8C 101.334 38.0386 102.417 39.1208 104 40C 103.411 42.4601 102.701 44.3374 105.6 44.8C 104.876 47.1496 104.483 48.993 107.2 49.6C 106.251 50.549 105.978 50.867 105.6 52L 110.4 52C 109.322 53.4142 108.702 54.386 108 56C 109.764 55.9247 111.115 55.715 112.8 55.2C 111.862 50.6529 111.537 44.8697 107.2 42.4C 108.46 39.7713 108.154 36.1644 110.4 34.4C 107.389 32.4238 104.287 32.4034 100.8 32z"/>
<path style="stroke:none; fill:#c2b8b0" d="M 35.2 33.6L 35.2 34.4C 38.4806 34.3978 41.5712 34.1994 44.8 33.6C 41.7578 32.3592 38.4252 33.4615 35.2 33.6z"/>
<path style="stroke:none; fill:#5d4723" d="M 89.6 33.6L 88 34.4C 88 35.8375 88.0112 35.6172 88.8 36.8L 83.2 36.8C 83.2 39.0001 80.8808 40.1413 80.8 43.2L 81.6 43.2L 82.4 39.2L 83.2 39.2C 83.4456 40.8982 83.5056 41.3488 84.8 42.4C 84.008 45.649 83.572 47.1695 80 47.2L 79.2 53.6L 84 56C 85.28 53.022 87.4936 51.0798 85.6 48C 87.1624 46.215 87.6328 44.7474 88 42.4L 88.8 42.4L 88 48C 90.3816 46.207 94.8632 42.0454 92 39.2C 91.952 36.6961 91.3008 35.4507 89.6 33.6z"/>
<path style="stroke:none; fill:#856639" d="M 108 34.4L 108.8 40L 109.6 40L 110.4 35.2L 115.2 36C 112.885 33.857 111.044 33.9074 108 34.4z"/>
<path style="stroke:none; fill:#ded2c1" d="M 122.4 33.6L 122.4 34.4L 124.8 34.4C 123.802 33.8522 123.562 33.801 122.4 33.6z"/>
<path style="stroke:none; fill:#87745c" d="M 39.2 36.8L 46.4 35.2C 45.3883 37.1338 44.9457 38.621 44.8 40.8L 45.6 40.8L 45.6 37.6L 48 37.6L 48 34.4C 45.0142 34.5282 41.224 34.4478 39.2 36.8M 72.8 34.4C 73.6654 37.0402 74.4874 38.4372 76.8 40C 76.5595 36.8385 75.9058 35.3421 72.8 34.4z"/>
<path style="stroke:none; fill:#c2b8b0" d="M 122.4 34.4L 122.4 36L 125.6 36L 124.8 38.4L 128 37.6C 126.313 35.5934 124.994 34.7946 122.4 34.4z"/>
<path style="stroke:none; fill:#615a53" d="M 32.8 39.2C 36.6657 37.3367 39.8084 37.5681 44 37.6C 43.5574 41.1015 43.2023 44.4621 43.2 48C 45.5293 47.3678 46.6502 46.8002 48 44.8L 44 45.6C 44.4086 44.0382 44.5866 43.6345 45.6 42.4C 45.1617 39.627 45.4257 37.8114 46.4 35.2C 43.9339 35.5326 41.5952 36.1263 39.2 36.8L 39.2 35.2C 36.2974 35.8996 34.321 36.5683 32.8 39.2M 110.4 35.2C 108.78 42.0227 112.223 48.9909 112 56C 114.677 57.6252 115.338 59.3898 116 62.4L 116.8 62.4C 116.918 56.7677 113.322 49.7288 112.034 44C 111.539 41.7937 111.886 39.2675 110.4 37.6L 110.4 36.8L 115.2 36.8C 113.59 35.8202 112.273 35.4838 110.4 35.2z"/>
<path style="stroke:none; fill:#5d4723" d="M 115.2 35.2C 113.554 36.4655 112.49 36.6605 110.4 36.8L 110.4 37.6C 115.591 38.1839 121.113 37.9278 120.8 44.8C 124.582 41.3585 119.141 37.5822 116.8 35.2L 115.2 35.2z"/>
<path style="stroke:none; fill:#99875f" d="M 116.8 35.2L 116.8 36L 119.2 36C 118.202 35.4522 117.962 35.401 116.8 35.2z"/>
<path style="stroke:none; fill:#c5b08e" d="M 28.8 41.6L 29.6 41.6L 34.4 36C 31.3994 37.1906 29.8887 38.5443 28.8 41.6z"/>
<path style="stroke:none; fill:#856639" d="M 116.8 36L 116.8 36.8L 120 37.6L 120 36.8L 116.8 36z"/>
<path style="stroke:none; fill:#1b1610" d="M 36 36.8C 34.903 38.2194 34.488 38.7204 32.8 39.2C 32.3715 44.9596 35.1994 50.0755 35.2 56C 37.7466 55.8308 39.9353 54.9495 42.4 54.4L 42.4 53.6C 40.7079 49.5803 41.0763 43.8104 43.2 40C 40.7165 39.0122 38.5734 37.5014 36 36.8z"/>
<path style="stroke:none; fill:#5d4723" d="M 33.6 40C 34.7653 39.1173 35.1173 38.7653 36 37.6C 34.3011 38.3194 34.3194 38.3011 33.6 40M 39.2 37.6C 40.4914 39.371 41.9614 39.9727 44 40.8L 44 37.6L 39.2 37.6z"/>
<path style="stroke:none; fill:#9c8a80" d="M 45.6 37.6L 45.6 41.6C 47.6434 40.5818 48.5943 39.6527 49.6 37.6L 45.6 37.6z"/>
<path style="stroke:none; fill:#1b1610" d="M 112.8 37.6C 113.329 38.7171 113.571 39.051 114.4 40L 112 40.8C 113.255 46.1001 114.82 60.2194 119.2 63.2C 119.2 54.3538 116.205 46.1222 116 37.6L 112.8 37.6z"/>
<path style="stroke:none; fill:#372d1f" d="M 116 37.6C 116.05 43.1726 118.396 47.9654 118.4 53.6L 119.2 53.6C 119.2 49.4244 118.58 45.5991 121.6 42.4C 120.182 39.8296 118.846 38.4109 116 37.6z"/>
<path style="stroke:none; fill:#9c8a80" d="M 31.2 38.4C 28.2692 42.0449 25.0372 45.2329 23.2 49.6L 24.8 49.6C 24.3569 52.8638 25.5177 55.2992 26.4 58.4L 27.2 58.4C 26.7292 53.2849 27.3857 49.8365 28 44.8L 30.4 45.6C 30.8104 42.9798 31.8054 40.8342 32.8 38.4L 31.2 38.4z"/>
<path style="stroke:none; fill:#856639" d="M 78.4 38.4C 76.7492 41.5726 76.8004 44.4837 76.8 48L 77.6 48L 77.6 44L 81.6 44.8C 80.9512 42.3174 80.0208 40.3906 78.4 38.4z"/>
<path style="stroke:none; fill:#372d1f" d="M 111.2 38.4L 111.2 42.4L 112 42.4L 114.4 40C 113.234 39.1351 112.602 38.8511 111.2 38.4z"/>
<path style="stroke:none; fill:#99875f" d="M 75.2 39.2C 75.6355 45.3746 74.4 51.3758 74.4 57.6C 79.0824 54.0399 78.4542 43.4954 75.2 39.2z"/>
<path style="stroke:none; fill:#6c5c30" d="M 82.4 39.2L 81.6 44.8L 77.6 44C 77.7788 48.1646 78.1241 51.8312 77.6 56C 79.2278 56.9807 79.4611 57.3621 80 59.2C 86.5 56.1596 90.8376 54.3508 90.4 46.4C 89.2672 46.7776 88.9488 47.051 88 48C 88.4576 46.0982 88.712 44.3536 88.8 42.4L 88 42.4C 87.4576 44.5425 86.764 46.1195 85.6 48C 86.7808 51.0819 84.7912 53.0406 84 56C 82.3696 54.8837 81.0984 54.1208 79.2 53.6L 80 47.2C 83.6424 47.3186 84.332 45.8232 84.8 42.4L 82.4 39.2z"/>
<path style="stroke:none; fill:#615a53" d="M 31.2 40L 31.2 42.4L 32 42.4C 31.799 41.2388 31.7478 40.9986 31.2 40z"/>
<path style="stroke:none; fill:#5d4723" d="M 32 40L 32 42.4L 32.8 42.4C 32.599 41.2388 32.5478 40.9986 32 40z"/>
<path style="stroke:none; fill:#87745c" d="M 108 40L 107.2 42.4C 108.731 43.6846 109.47 44.6266 110.4 46.4L 111.2 46.4C 111.044 44.0578 110.385 42.1956 109.6 40L 108 40M 121.866 40.5334C 121.822 40.5778 121.778 41.4222 122.134 41.0666C 122.178 41.0222 122.222 40.1778 121.866 40.5334z"/>
<path style="stroke:none; fill:#433939" d="M 41.6 40.8C 41.5497 43.513 41.2607 46.1277 40.8 48.8C 43.0312 46.8503 42.6891 43.3954 41.6 40.8z"/>
<path style="stroke:none; fill:#5d4723" d="M 42.4 40.8C 42.3977 44.3497 40.9757 49.6174 44 52L 43.2 55.2L 48.8 54.4C 47.6227 49.9131 44.2416 45.1767 42.4 40.8z"/>
<path style="stroke:none; fill:#ac9f8a" d="M 122.4 40.8C 123.798 44.7638 127.476 42.76 130.4 44.8C 131.958 40.0468 125.459 41.0556 122.4 40.8z"/>
<path style="stroke:none; fill:#87745c" d="M 30.4 42.4C 30.4939 44.5841 30.7994 46.6514 31.2 48.8L 32 48.8C 31.809 46.4641 31.5022 44.4706 30.4 42.4z"/>
<path style="stroke:none; fill:#5d4723" d="M 31.2 42.4C 31.7062 49.5503 32.8034 54.8975 32.3334 62.3111C 32.2361 63.845 33.2646 63.7554 34.4 64C 31.1288 70.1297 31.7586 81.4448 33.6 88L 34.4 88C 34.4662 85.6736 34.5924 84.2464 36 82.4C 35.2823 78.5343 34.9269 74.9149 33.6 71.2C 35.7067 72.2718 36.3187 72.4446 37.6 70.4L 34.4 70.4C 35.5386 67.0432 36.3266 63.5154 36.8 60C 33.4007 60 35.0898 45.2526 31.2 42.4z"/>
<path style="stroke:none; fill:#433939" d="M 112 42.4L 112 46.4L 112.8 46.4C 112.73 44.8287 112.623 43.8153 112 42.4M 120.8 42.4C 118.376 45.8609 116.891 64.7162 120 67.2C 119.482 59.1567 121.995 50.0509 120.8 42.4z"/>
<path style="stroke:none; fill:#5d4723" d="M 64.8 43.2L 64 45.6L 66.4 48C 61.2418 47.5103 61.5003 51.4013 60 55.2C 63.4423 58.6963 66.4682 60.3594 71.2 61.6C 70.9317 63.3968 70.8877 64.6235 71.2 66.4L 72 66.4C 73.8379 62.0146 70.541 53.8596 74.4 51.2C 72.8262 47.1385 68.5456 46.6554 66.4 43.2L 64.8 43.2z"/>
<path style="stroke:none; fill:#87745c" d="M 122.4 43.2C 120.75 46.3726 120.8 49.2837 120.8 52.8L 121.6 52.8C 121.61 49.7709 123.157 45.9255 122.4 43.2z"/>
<path style="stroke:none; fill:#9c8a80" d="M 123.2 43.2C 122.982 47.402 126.55 52.2131 128.8 46.4L 132 47.2C 130.71 42.6378 127.143 43.6438 123.2 43.2z"/>
<path style="stroke:none; fill:#99875f" d="M 80 68L 77.6 68.8C 79.6473 77.3992 81.3872 84.7632 91.2 88L 91.2 83.2L 90.4 83.2C 89.964 84.508 90.108 84.364 88.8 84.8C 87.2056 82.2168 85.3432 80.776 82.4 80C 82.1488 76.6621 80.3904 74.2629 79.2 71.2L 82.4 70.4L 81.6 72L 82.4 72C 84.7584 71.0324 85.8992 70.1914 87.2 68C 88.9664 68.3628 89.2408 68.517 90.4 67.2C 93.7304 67.7297 96.744 67.2018 100 66.4L 100 65.6C 95.8064 66.13 92.1704 66.5929 88 65.6L 88 67.2C 85.1344 65.4566 84.0952 64.191 84 60.8C 88.6608 60.7004 95.9168 47.6455 98.4 54.4C 101.251 53.8608 104.922 54.3661 105.6 51.2L 102.4 52.8C 102.4 50.6979 101.196 50.8817 99.2 51.2L 100 47.2L 96.8 48C 96.5264 45.7375 94.0392 43.139 91.68 45.3179C 89.608 47.2319 90.4968 51.8536 89.304 54.4309C 86.668 60.1268 78.5149 60.9266 80 68z"/>
<path style="stroke:none; fill:#6c5c30" d="M 120 44L 120 51.2L 120.8 51.2C 120.798 48.6993 120.97 46.3118 120 44z"/>
<path style="stroke:none; fill:#c5b08e" d="M 28 44.8C 26.9438 49.9286 26.3571 53.1661 27.2 58.4L 28 58.4C 28.394 53.6779 28.3028 49.4162 29.6 44.8L 28 44.8z"/>
<path style="stroke:none; fill:#372d1f" d="M 112.8 44.8C 113.038 47.8034 113.493 50.7303 114.4 53.6L 115.2 53.6C 115.06 50.3893 114.686 47.4477 112.8 44.8z"/>
<path style="stroke:none; fill:#ded2c1" d="M 24.8 45.6L 25.6 46.4L 24.8 45.6z"/>
<path style="stroke:none; fill:#ac9f8a" d="M 28.8 45.6C 27.7777 53.689 27.1946 61.4662 27.2 69.6L 28 69.6C 28.3152 62.2589 31.7475 52.6374 28.8 45.6z"/>
<path style="stroke:none; fill:#99875f" d="M 29.6 45.6C 29.5189 55.5312 25.811 67.351 28.8 76.8L 29.6 76.8C 29.8914 73.2322 31.1563 69.9357 30.4 66.4C 34.4246 62.9369 33.0537 49.0886 29.6 45.6z"/>
<path style="stroke:none; fill:#6c5c30" d="M 32 45.6C 32.3029 50.7967 31.4152 55.7227 32.8 60.8L 33.6 60.8C 33.6 55.9125 34.5904 49.9243 32 45.6z"/>
<path style="stroke:none; fill:#b69661" d="M 121.6 45.6C 121.6 53.1004 123.31 60.5366 123.157 68C 123.056 72.914 121.223 77.5472 120.8 82.4L 121.6 82.4C 124.43 76.0049 125.602 68.3961 127.2 61.6C 126.067 61.9776 125.749 62.251 124.8 63.2C 123.243 57.3141 124.561 51.0492 121.6 45.6z"/>
<path style="stroke:none; fill:#ac9f8a" d="M 132 45.6C 133.698 48.5083 136.564 48.4703 138.939 50.6512C 143.038 54.413 144.158 59.1662 149.6 61.6L 146.4 55.2C 143.641 54.8394 142.761 50.7944 140.622 48.8889C 138.594 47.081 134.599 46.5563 132 45.6M 122.4 46.4L 123.2 51.2L 124 51.2C 123.861 49.11 123.666 48.0453 122.4 46.4z"/>
<path style="stroke:none; fill:#99875f" d="M 128.8 46.4C 126.093 51.7822 126.936 55.7078 126.4 61.6L 128.8 60.8L 128 56L 130.4 56.8L 130.4 52L 136 53.6L 134.4 49.6C 137.352 51.9025 139.935 55.0973 143.2 56.8C 140.683 50.1616 135.555 47.5998 128.8 46.4z"/>
<path style="stroke:none; fill:#372d1f" d="M 34.4 47.2C 34.4 51.8071 34.839 56.2254 35.2 60.8L 36 60.8L 36 57.6L 40 58.4C 40 56.9626 39.9886 57.1828 39.2 56C 42.0396 55.5391 43.011 54.6967 44 52L 41.6 50.4C 41.3659 52.1062 41.2077 52.4588 42.4 53.6L 42.4 54.4L 35.2 56C 35.2 53.0398 35.5522 49.9459 34.4 47.2z"/>
<path style="stroke:none; fill:#99875f" d="M 49.6 48C 50.2732 49.6349 50.5622 49.8255 49.6 51.2C 50.7828 51.9886 50.5626 52 52 52C 50.1178 56.6892 48.5618 60.5406 43.2 61.6L 43.2 62.4C 51.3631 62.1396 56.7847 67.8284 64.8 68C 65.322 71.2118 66.7206 72.8005 68.8 75.2L 69.6 75.2C 69.4952 72.9925 69.6133 71.1445 68 69.6L 68 68.8L 71.2 69.6C 70.5894 60.5256 60.2296 59.1802 56 52C 57.9141 50.177 55.8769 48.8154 54.4 47.2L 49.6 48z"/>
<path style="stroke:none; fill:#6c5c30" d="M 44.8 48L 44.8 48.8C 46.6906 50.5202 48.8029 52.4494 46.4 54.4L 46.4 55.2L 49.6 55.2L 51.2 52L 49.6 51.2C 50.8271 50.3819 50.7218 50.5563 51.2 49.6C 49 48.5366 47.2402 48.1228 44.8 48z"/>
<path style="stroke:none; fill:#856639" d="M 99.2 48L 99.2 51.2L 102.4 51.2L 102.4 48L 99.2 48z"/>
<path style="stroke:none; fill:#ded2c1" d="M 22.4 48.8L 23.2 49.6L 22.4 48.8z"/>
<path style="stroke:none; fill:#c5b08e" d="M 124 48.8C 123.914 52.9907 121.643 58.8047 125.6 61.6C 126.314 56.7421 127.89 52.6938 124 48.8z"/>
<path style="stroke:none; fill:#87745c" d="M 22.4 49.6C 23.0107 52.8508 23.3793 55.8922 23.2 59.2L 25.6 58.4C 25.2904 60.0717 25.2931 59.7689 27.2 60C 26.3554 56.4426 24.7706 53.3027 24.8 49.6L 22.4 49.6z"/>
<path style="stroke:none; fill:#856639" d="M 134.4 49.6C 134.79 51.2446 135.162 52.1154 136 53.6C 134.116 52.9059 132.375 52.3411 130.4 52L 130.4 56.8C 129.217 56.0114 129.438 56 128 56C 128.264 60.1124 126.917 63.9356 126.4 68C 128.405 66.2968 128.243 63.6382 131.2 63.2L 132 58.4L 133.6 66.4L 134.4 66.4C 135.729 60.0338 138.724 63.4982 142.4 65.6C 142.022 64.467 141.749 64.149 140.8 63.2C 142.75 64.6318 144.114 66.0841 145.6 68C 147.1 68.0547 148.166 68.3182 149.6 68.8C 147.815 65.1834 144.878 59.1034 141.6 56.8L 141.6 61.6L 140.8 61.6C 139.495 58.9014 138.246 56.5656 137.6 53.6C 138.782 54.3885 138.562 54.4 140 54.4C 138.596 52.084 136.751 50.9239 134.4 49.6z"/>
<path style="stroke:none; fill:#ac9f8a" d="M 21.6 50.4L 22.4 51.2L 21.6 50.4z"/>
<path style="stroke:none; fill:#87745c" d="M 57.6 50.4C 57.1639 51.7082 57.3082 51.564 56 52C 57.2431 55.0522 58.5538 57.0377 61.6 58.4C 60.8915 55.3768 59.4631 52.8772 57.6 50.4z"/>
<path style="stroke:none; fill:#856639" d="M 77.6 50.4C 76.4212 54.4256 77.5149 58.2773 77.6 62.4C 79.0266 61.6158 78.8754 61.6739 79.2 60C 81.1168 60.4597 81.1896 60.3801 81.6 58.4C 79.3452 58.4 80.248 56.3116 77.6 56C 77.9732 53.932 78.3106 52.3678 77.6 50.4z"/>
<path style="stroke:none; fill:#6c5c30" d="M 104.534 50.6666C 104.178 51.0222 105.022 50.9778 105.066 50.9334C 105.422 50.5778 104.578 50.6222 104.534 50.6666z"/>
<path style="stroke:none; fill:#c2b8b0" d="M 141.6 50.4L 142.4 51.2L 141.6 50.4z"/>
<path style="stroke:none; fill:#615a53" d="M 21.6 51.2C 19.6305 54.3914 17.3363 57.2754 16 60.8L 22.4 58.4C 22.4924 61.4457 22.7895 63.3266 25.6 64.8C 24.6522 68.5515 25.3034 73.0983 26.4 76.8L 27.2 76.8C 26.7578 71.1968 25.9892 65.6442 26.4 60C 24.6566 59.4189 24.9758 59.6484 25.6 58.4C 24.1626 58.4 24.3828 58.4114 23.2 59.2C 23.4878 56.5038 23.2937 53.9027 23.2 51.2L 21.6 51.2z"/>
<path style="stroke:none; fill:#856639" d="M 72 51.2L 73.6 64L 74.4 64C 75.1994 59.6293 74.4364 55.5944 74.4 51.2L 72 51.2z"/>
<path style="stroke:none; fill:#b69661" d="M 84 60.8C 83.5904 64.4726 84.6104 65.8215 88 67.2L 88 65.6C 93.3712 67.1876 99.8248 63.1246 104 64.8L 104.8 64.8C 105.778 63.8438 105.936 63.7469 107.2 63.2C 104.744 60.6628 101.85 60.2749 98.4 60C 98.9392 61.8379 99.172 62.2193 100.8 63.2L 100.8 64C 96.4944 64.3398 92.3368 64.8 88 64.8C 89.388 60.5754 91.8696 56.8615 96 60.8L 97.832 57.5648C 98.824 55.0612 98.4952 50.7732 94.648 52.2698C 90.024 54.0684 89.4736 59.9174 84 60.8z"/>
<path style="stroke:none; fill:#ded2c1" d="M 142.4 51.2L 143.2 52L 142.4 51.2z"/>
<path style="stroke:none; fill:#ac9f8a" d="M 20.8 52L 21.6 52.8L 20.8 52z"/>
<path style="stroke:none; fill:#856639" d="M 51.2 52C 50.1628 53.2755 49.9717 53.6146 49.6 55.2C 51.2028 54.202 51.8582 53.8105 51.2 52z"/>
<path style="stroke:none; fill:#87745c" d="M 105.6 52C 107.238 54.2238 108.525 53.8018 110.4 52L 105.6 52z"/>
<path style="stroke:none; fill:#c2b8b0" d="M 20 52.8L 20.8 53.6L 20 52.8z"/>
<path style="stroke:none; fill:#856639" d="M 88.8 52.8C 87.4296 55.0086 86.4904 56.0434 84 56.8C 85.16 58.0861 85.6408 58.4514 87.2 59.2C 88.4264 56.9683 89.5912 55.2884 88.8 52.8z"/>
<path style="stroke:none; fill:#433939" d="M 113.6 52.8C 114.121 54.7475 114.528 55.4262 116 56.8C 115.401 54.997 114.925 54.1491 113.6 52.8z"/>
<path style="stroke:none; fill:#6c5c30" d="M 120.8 52.8C 119.874 57.792 120.169 62.2031 120.8 67.2L 121.6 67.2C 121.418 62.9552 122.346 56.591 120.8 52.8z"/>
<path style="stroke:none; fill:#c2b8b0" d="M 19.2 53.6L 20 54.4L 19.2 53.6z"/>
<path style="stroke:none; fill:#c5b08e" d="M 96 60.8C 95.2112 59.6172 95.2 59.8374 95.2 58.4C 90.7088 58.7669 89.0664 60.3418 88 64.8C 92.3496 64.8 96.4896 64.5447 100.8 64L 100.8 63.2C 99.5136 62.0402 99.1488 61.5589 98.4 60C 101.816 60.4438 104.398 61.1614 107.2 63.2C 106.038 63.401 105.798 63.4522 104.8 64L 104.8 64.8C 106.241 65.2494 107.298 65.4593 108.8 65.6C 108.634 64.2711 108.404 64.3681 109.6 64C 109.032 61.3549 106.725 59.9333 106.4 57.6L 101.6 58.4C 103.548 56.4538 105.294 55.6894 108 55.2C 102.464 51.0058 98.196 55.7152 96 60.8z"/>
<path style="stroke:none; fill:#615a53" d="M 137.6 53.6C 138.037 56.755 139.006 58.9826 140.8 61.6L 141.6 61.6C 141.554 57.7503 141.089 55.5575 137.6 53.6z"/>
<path style="stroke:none; fill:#9c8a80" d="M 144 53.6C 144.547 54.864 144.644 55.0218 145.6 56C 145.053 54.736 144.956 54.5782 144 53.6z"/>
<path style="stroke:none; fill:#ded2c1" d="M 144.8 53.6L 145.6 54.4L 144.8 53.6z"/>
<path style="stroke:none; fill:#c2b8b0" d="M 18.4 55.2L 19.2 56L 18.4 55.2z"/>
<path style="stroke:none; fill:#615a53" d="M 39.2 56L 39.2 56.8C 41.3816 57.075 42.7061 56.7286 44.8 56C 42.8853 55.4074 41.2059 55.7582 39.2 56z"/>
<path style="stroke:none; fill:#87745c" d="M 43.2 56L 43.2 56.8L 50.4 56C 47.934 54.9746 45.7662 55.39 43.2 56z"/>
<path style="stroke:none; fill:#b69661" d="M 53.6 55.2L 53.6 60L 54.4 60L 54.4 57.6C 56.266 59.0087 57.3237 60.3242 58.4 62.4L 55.2 60.8L 54.4 63.2C 56.3018 63.6576 58.0464 63.9124 60 64C 59.745 59.3813 57.6553 57.2385 53.6 55.2z"/>
<path style="stroke:none; fill:#87745c" d="M 76 55.2C 75.473 58.3618 75.125 63.7813 72.8 63.2L 73.6 68.8L 74.4 68.8C 74.7975 66.2343 75.3203 65.2451 77.6 64L 76.8 68.8L 80 68C 79.4855 63.4304 82.1448 61.16 86.4 60C 84.8096 58.3511 83.8744 57.937 81.6 57.6L 81.6 60.8L 79.2 60L 79.2 62.4L 77.6 62.4C 77.5759 59.6722 77.5579 57.4797 76 55.2z"/>
<path style="stroke:none; fill:#ded2c1" d="M 101.6 58.4L 106.4 57.6C 106.696 59.9861 108.067 59.8903 110.4 60C 111.461 63.2774 114.304 66.9122 117.6 68C 117.015 61.5031 107.367 49.7074 101.6 58.4z"/>
<path style="stroke:none; fill:#87745c" d="M 121.6 55.2C 121.1 57.8906 120.822 60.4626 120.8 63.2C 123.487 61.2403 122.855 58.0023 121.6 55.2z"/>
<path style="stroke:none; fill:#c2b8b0" d="M 17.6 56L 18.4 56.8L 17.6 56z"/>
<path style="stroke:none; fill:#c5b08e" d="M 36.8 65.6C 40.9163 63.1426 47.7385 60.7155 50.4 56.8C 44.0632 55.0578 37.3205 58.7455 36.8 65.6M 109.6 56L 109.6 56.8L 112 57.6C 111.216 56.1734 111.274 56.3246 109.6 56z"/>
<path style="stroke:none; fill:#ac9f8a" d="M 112 56C 112.547 57.7672 112.864 58.1627 114.4 59.2C 113.726 57.7847 113.167 57.0497 112 56z"/>
<path style="stroke:none; fill:#87745c" d="M 112.8 56L 114.4 60L 115.2 60C 114.858 57.8844 114.543 57.2315 112.8 56z"/>
<path style="stroke:none; fill:#ded2c1" d="M 16.8 56.8L 17.6 57.6L 16.8 56.8z"/>
<path style="stroke:none; fill:#856639" d="M 61.6 56.8C 62.3746 59.1713 63.1471 59.6023 65.6 60L 65.6 59.2L 61.6 56.8z"/>
<path style="stroke:none; fill:#433939" d="M 116 56.8L 116.8 60L 117.6 60C 117.149 58.5984 116.865 57.9664 116 56.8z"/>
<path style="stroke:none; fill:#ac9f8a" d="M 126.4 56.8L 124.8 63.2L 125.6 63.2C 126.439 60.9507 127.105 59.1153 126.4 56.8M 16.8 57.6L 17.6 58.4L 16.8 57.6z"/>
<path style="stroke:none; fill:#1b1610" d="M 36 60C 37.5589 59.2514 38.0402 58.8861 39.2 57.6C 37.0091 57.7686 36.4624 57.842 36 60z"/>
<path style="stroke:none; fill:#9c8a80" d="M 40 57.6L 40 59.2C 41.3081 58.764 41.164 58.9081 41.6 57.6L 40 57.6z"/>
<path style="stroke:none; fill:#c5b08e" d="M 54.4 57.6L 54.4 60.8L 58.4 62.4C 57.5597 60.0005 56.6752 58.7578 54.4 57.6z"/>
<path style="stroke:none; fill:#87745c" d="M 143.2 57.6C 145.772 64.8294 151.65 69.7763 154.4 76.8L 155.2 76.8L 153.6 66.4C 152.162 66.4 152.383 66.4114 151.2 67.2C 149.384 63.2713 147.066 59.6658 143.2 57.6z"/>
<path style="stroke:none; fill:#5d4723" d="M 13.6 66.4L 19.2 63.2L 19.2 60C 20.5377 60.2706 20.2482 60.4298 20.8 59.2L 21.6 59.2C 21.4542 64.2431 19.9234 69.5945 18.4 74.4C 23.9041 70.7636 22.6412 64.017 22.4 58.4C 17.4925 59.3366 14.7841 61.5287 13.6 66.4z"/>
<path style="stroke:none; fill:#87745c" d="M 38.4 58.4L 38.4 60C 39.7081 59.564 39.5639 59.7082 40 58.4L 38.4 58.4z"/>
<path style="stroke:none; fill:#615a53" d="M 132 58.4C 131.485 60.0847 131.275 61.4361 131.2 63.2C 124.879 63.5305 120.5 84.1152 119.2 89.6C 122.392 87.4944 124.053 83.8936 127.2 81.6L 127.2 84.8L 128 84.8L 128.8 68.8L 131.2 69.6L 131.2 67.2L 132 67.2C 134.107 69.9728 135.454 72.8038 136.8 76L 137.6 76C 137.176 73.168 136.226 70.6652 135.2 68C 137.414 67.623 136.357 65.1235 136 63.2L 136.8 63.2L 137.6 65.6C 138.767 64.5503 139.326 63.8153 140 62.4C 136.247 61.3881 134.836 62.6127 134.4 66.4L 133.6 66.4C 133.132 63.6086 133.423 60.894 132 58.4z"/>
<path style="stroke:none; fill:#433939" d="M 20.8 59.2C 20.2189 60.9434 20.4484 60.6242 19.2 60L 19.2 63.2C 11.0106 65.624 7.22629 78.7388 7.2 86.4L 8 86.4C 8.75352 80.2216 14.1815 74.891 13.6 68.8C 17.0399 68.8544 18.6834 66.3447 21.6 64.8C 21.585 62.7654 21.5876 61.0652 20.8 59.2z"/>
<path style="stroke:none; fill:#615a53" d="M 37.6 59.2L 38.4 60L 37.6 59.2z"/>
<path style="stroke:none; fill:#9c8a80" d="M 47.2 59.2C 45.7233 59.9301 44.9642 60.321 44 61.6C 45.7933 61.3691 47.9386 61.1862 47.2 59.2z"/>
<path style="stroke:none; fill:#856639" d="M 37.0666 60.5334C 37.0222 60.5778 36.9778 61.4222 37.3334 61.0666C 37.3778 61.0222 37.4222 60.1778 37.0666 60.5334z"/>
<path style="stroke:none; fill:#ac9f8a" d="M 37.6 60L 37.6 61.6C 38.9082 61.1639 38.7639 61.3082 39.2 60L 37.6 60z"/>
<path style="stroke:none; fill:#856639" d="M 66.4 60.8C 67.6191 62.3817 68.8214 63.5749 70.4 64.8L 71.2 61.6C 69.3282 60.8598 68.3758 60.6178 66.4 60.8z"/>
<path style="stroke:none; fill:#c2b8b0" d="M 108.8 60C 108.806 61.8286 108.67 63.1058 108 64.8C 110.581 65.2622 111.577 64.7305 112.8 62.4L 108.8 60z"/>
<path style="stroke:none; fill:#ac9f8a" d="M 115.466 60.5334C 115.422 60.5778 115.378 61.4222 115.734 61.0666C 115.778 61.0222 115.822 60.1778 115.466 60.5334z"/>
<path style="stroke:none; fill:#c2b8b0" d="M 14.4 61.6L 15.2 62.4L 14.4 61.6z"/>
<path style="stroke:none; fill:#372d1f" d="M 24.2666 62.1334C 24.2222 62.1778 24.1778 63.0222 24.5334 62.6666C 24.5778 62.6222 24.6222 61.7778 24.2666 62.1334z"/>
<path style="stroke:none; fill:#9c8a80" d="M 25.6 61.6C 26.2416 64.2943 26.3924 66.8358 26.4 69.6L 27.2 69.6C 27.1997 66.7925 27.8257 63.5449 25.6 61.6z"/>
<path style="stroke:none; fill:#856639" d="M 46.4 62.4C 49.6882 64.711 60.5186 68.9633 61.3945 72.887C 62.137 76.2136 59.1361 78.1575 57.4506 80.4752C 54.5054 84.5256 50.1729 92.6528 51.2 97.6C 54.4578 93.0184 57.1184 84.988 63.2 84C 63.78 78.2214 68.3819 81.8928 71.1895 78.6062C 73.0714 76.403 72.9488 73.4502 75.2 71.2C 74.5242 69.0437 73.8745 67.0449 73.6 64.8C 71.9511 66.3904 71.537 67.3257 71.2 69.6L 68 68.8L 68 69.6C 69.2529 71.2597 69.3533 73.136 69.6 75.2L 68.8 75.2C 67.2988 72.6716 65.5834 70.9394 64.8 68C 58.1849 67.6934 52.7693 61.3152 46.4 62.4z"/>
<path style="stroke:none; fill:#9c8a80" d="M 148 61.6C 148.938 63.9649 150.07 65.5404 152 67.2C 152.05 64.0931 150.758 62.9304 148 61.6z"/>
<path style="stroke:none; fill:#c2b8b0" d="M 149.6 61.6L 150.4 62.4L 149.6 61.6z"/>
<path style="stroke:none; fill:#99875f" d="M 36 62.4L 35.2 66.4C 36.5958 67.112 37.7 67.5624 39.2 68C 40.2213 66.468 40.2214 67.132 39.2 65.6C 40.8008 64.6282 41.4282 64.0008 42.4 62.4C 40.1382 63.1526 38.6613 64.0983 36.8 65.6C 36.6607 64.2518 36.5464 63.6049 36 62.4z"/>
<path style="stroke:none; fill:#87745c" d="M 44 64.8L 44 65.6L 42.4 65.6L 42.4 66.4C 44.4201 65.7165 44.824 65.1934 45.6 63.2C 43.1934 62.477 40.4995 64.0486 44 64.8z"/>
<path style="stroke:none; fill:#6c5c30" d="M 44.8 62.4L 44.8 65.6C 47.4658 65.0169 46.9653 63.4641 44.8 62.4z"/>
<path style="stroke:none; fill:#9c8a80" d="M 116.8 62.4L 116.8 64.8L 118.4 64L 118.4 63.2L 116.8 62.4z"/>
<path style="stroke:none; fill:#ded2c1" d="M 150.4 62.4L 151.2 63.2L 150.4 62.4M 13.6 63.2L 14.4 64L 13.6 63.2z"/>
<path style="stroke:none; fill:#372d1f" d="M 23.2 63.2L 22.4 74.4C 26.3022 74.9014 25.8718 83.1656 25.6 86.4C 27.2847 86.9152 28.6361 87.1248 30.4 87.2C 31.2832 90.8016 32.9673 96.24 36 98.4C 32.9913 87.1496 22.7035 76.9999 25.6 64.8L 23.2 63.2z"/>
<path style="stroke:none; fill:#433939" d="M 46.4 63.2C 46.2246 65.0093 46.3965 64.8206 44.8 65.6L 44.8 66.4L 50.4 66.4C 49.1009 64.7651 48.2858 64.0829 46.4 63.2z"/>
<path style="stroke:none; fill:#856639" d="M 101.6 65.6C 102.412 64.6885 102.647 64.3107 103.2 63.2C 101.438 63.9951 101.562 63.7359 101.6 65.6z"/>
<path style="stroke:none; fill:#87745c" d="M 103.2 63.2C 102.411 64.3828 102.4 64.1626 102.4 65.6L 105.6 65.6L 105.6 64.8L 103.2 63.2z"/>
<path style="stroke:none; fill:#856639" d="M 121.6 63.2L 120.8 73.6L 121.6 73.6C 121.671 70.1617 122.915 66.4249 121.6 63.2z"/>
<path style="stroke:none; fill:#99875f" d="M 122.4 63.2C 122.027 71.888 118.43 80.2288 118.4 88.8C 117.217 88.0112 117.438 88 116 88L 116.8 92C 122.112 87.1176 125.194 69.859 122.4 63.2z"/>
<path style="stroke:none; fill:#5d4723" d="M 136 63.2C 136 66.0144 138.062 68.7153 135.2 68C 136.595 73.1269 137.197 78.275 139.2 83.2L 140 83.2C 140.676 81.044 141.326 79.0449 141.6 76.8L 142.4 76.8L 143.2 79.2L 145.6 78.4C 143.23 73.1959 139.546 70.0918 140 64C 138.883 64.5291 138.549 64.7715 137.6 65.6C 137.053 64.336 136.956 64.1782 136 63.2z"/>
<path style="stroke:none; fill:#615a53" d="M 140.8 63.2C 141.178 64.333 141.451 64.651 142.4 65.6L 140.8 65.6C 143.154 69.4562 145.125 71.7145 149.6 72.8L 148.8 71.2C 153.28 75.4546 150.954 83.576 156 86.4C 155.992 83.9248 156.327 81.6832 154.4 80C 155.157 74.5041 151.467 68.2604 145.6 68C 144.328 65.6075 143.234 64.3892 140.8 63.2z"/>
<path style="stroke:none; fill:#ac9f8a" d="M 13.6 64L 14.4 64.8L 13.6 64z"/>
<path style="stroke:none; fill:#856639" d="M 32 64C 31.4531 65.264 31.3562 65.4218 30.4 66.4C 31.0574 72.2857 30.1023 78.0874 31.2 84L 30.4 84L 30.4 82.4L 29.6 82.4C 29.9341 84.5512 30.1738 85.2432 32 86.4C 31.9949 78.6494 31.275 71.3633 34.4 64L 32 64z"/>
<path style="stroke:none; fill:#6c5c30" d="M 48.8 64C 50.8001 66.9276 52.6251 68.4945 56 69.6C 54.2488 66.8831 52.047 64.5536 48.8 64z"/>
<path style="stroke:none; fill:#9c8a80" d="M 76.8 73.6C 74.6091 73.7686 74.0624 73.842 73.6 76L 74.4 76C 75.9652 74.9444 76.4865 74.9604 78.4 75.2C 78.3578 71.3774 77.1358 67.802 77.6 64C 72.7116 65.6226 75.2428 70.0878 76.8 73.6z"/>
<path style="stroke:none; fill:#ac9f8a" d="M 108.8 65.6L 108.8 66.4C 110.966 67.7901 112.386 68.9351 113.6 71.2L 117.6 71.2L 117.6 68C 115.619 66.9287 114.784 65.9298 113.6 64L 108.8 65.6z"/>
<path style="stroke:none; fill:#5d4723" d="M 120 64C 119.826 65.3492 119.821 65.8529 120 67.2C 118.558 68.4318 118.534 69.278 118.4 71.2C 120.914 69.4239 121.15 66.7687 120 64z"/>
<path style="stroke:none; fill:#87745c" d="M 125.6 64C 125.506 66.1841 125.201 68.2514 124.8 70.4L 125.6 70.4C 126.318 68.2899 126.775 66.1902 127.2 64L 125.6 64z"/>
<path style="stroke:none; fill:#ded2c1" d="M 12.8 64.8L 13.6 65.6L 12.8 64.8z"/>
<path style="stroke:none; fill:#372d1f" d="M 19.2 64.8C 17.5295 67.059 16.3448 68.1783 13.6 68.8C 13.2191 74.8119 8.73984 79.5346 8 85.6C 9.92704 84.1432 10.4666 81.8536 12 80L 11.2 84C 12.8848 84.6552 13.8778 85.1896 15.2 86.4L 16 86.4C 17.8034 83.3136 20.5214 80.1328 21.6 76.8L 18.4 77.6C 18.1391 73.5097 19.8327 68.8162 20.8 64.8L 19.2 64.8z"/>
<path style="stroke:none; fill:#b69661" d="M 39.2 65.6L 39.2 66.4L 44 65.6C 42.1419 64.8628 41.1356 65.0502 39.2 65.6z"/>
<path style="stroke:none; fill:#6c5c30" d="M 100 64.8C 101.541 66.5662 103.3 66.3746 105.6 66.4L 105.6 65.6L 100 64.8z"/>
<path style="stroke:none; fill:#99875f" d="M 117.6 64.8C 117.565 67.9888 116.716 70.5527 116 73.6C 118.961 71.6805 118.894 67.8837 117.6 64.8z"/>
<path style="stroke:none; fill:#433939" d="M 139.2 64.8C 139.784 69.957 141.807 76.5206 148 76C 148.776 82.172 152.399 87.4288 153.6 93.6L 154.4 93.6L 156 86.4C 151.446 82.2608 154.282 74.6466 148.8 71.2L 149.6 72.8L 148.8 72.8C 144.782 70.7539 142.918 66.9919 139.2 64.8z"/>
<path style="stroke:none; fill:#87745c" d="M 13.0666 66.1334C 13.0222 66.1778 12.9778 67.0222 13.3334 66.6666C 13.3778 66.6222 13.4222 65.7778 13.0666 66.1334z"/>
<path style="stroke:none; fill:#856639" d="M 105.6 65.6L 105.6 66.4L 108.8 66.4C 107.595 65.8536 106.948 65.7393 105.6 65.6z"/>
<path style="stroke:none; fill:#87745c" d="M 35.2 66.4L 34.4 70.4C 35.9026 70.2593 36.9595 70.0494 38.4 69.6L 38.4 68L 35.2 66.4z"/>
<path style="stroke:none; fill:#6c5c30" d="M 39.2 68L 41.6 67.2C 40.187 66.8793 40.3541 66.9686 39.2 68z"/>
<path style="stroke:none; fill:#372d1f" d="M 41.6 66.4L 41.6 67.2L 44.8 67.2C 43.5951 66.6536 42.9482 66.5393 41.6 66.4z"/>
<path style="stroke:none; fill:#1b1610" d="M 48 88.8C 50.9107 87 52.3933 85.94 52.8 82.4L 56.8 82.4C 57.147 79.6592 58.5225 77.1027 57.2228 74.4198C 51.2382 62.0653 31.2382 65.9386 39.9636 80C 42.1487 83.5216 45.3411 85.7648 48 88.8z"/>
<path style="stroke:none; fill:#5d4723" d="M 98.4 66.4L 98.4 67.2L 101.6 67.2C 100.395 66.6536 99.748 66.5393 98.4 66.4z"/>
<path style="stroke:none; fill:#372d1f" d="M 101.6 66.4L 101.6 67.2L 108.8 67.2C 106.488 66.2297 104.101 66.4014 101.6 66.4z"/>
<path style="stroke:none; fill:#99875f" d="M 109.334 66.6666C 108.978 67.0222 109.822 66.9778 109.866 66.9334C 110.222 66.5778 109.378 66.6222 109.334 66.6666z"/>
<path style="stroke:none; fill:#856639" d="M 12 67.2C 11.3059 69.0838 10.7411 70.8247 10.4 72.8L 11.2 72.8C 11.9372 70.7602 12.5829 69.2837 12 67.2M 90.4 67.2C 89.0208 68.0444 88.8632 68.0286 87.2 68C 85.472 69.977 84.0392 71.0292 81.6 72L 82.4 70.4L 81.6 70.4L 79.2 71.2C 80.0184 74.3119 81.9232 76.8126 82.4 80L 90.4 84.8L 89.6 80.8L 93.6 82.4C 92.4224 80.1488 91.2976 79.5647 88.8 79.2C 88.7768 76.6448 88.3128 74.4408 90.4 72.8L 90.4 72L 88.8 71.2L 98.4 68C 95.88 66.9623 93.1136 67.3612 90.4 67.2z"/>
<path style="stroke:none; fill:#1b1610" d="M 94.4 73.6L 99.2 72.8C 99.86 76.9759 102.3 78.5882 106.4 77.6L 106.4 76.8C 102.486 76.5014 101.098 75.1133 100.8 71.2C 103.326 73.1427 104.773 74.1321 108 73.6C 109.754 75.419 111.538 73.7184 113.6 72.8C 110.657 63.6387 97.8352 65.9193 94.4 73.6z"/>
<path style="stroke:none; fill:#6c5c30" d="M 110.4 67.2L 111.2 68L 110.4 67.2z"/>
<path style="stroke:none; fill:#433939" d="M 131.2 67.2L 131.2 69.6C 130.017 68.8114 130.238 68.8 128.8 68.8L 128 84.8L 127.2 84.8L 127.2 81.6C 117.002 86.5824 112.087 103.978 112 114.4L 112.8 114.4C 114.525 110.035 114.11 103.913 117.6 100.8C 117.309 95.0544 120.377 93.0344 125.6 92C 124.332 97.3272 125.437 102.607 124.8 108C 121.662 108.518 120.812 109.789 120 112.8L 123.2 112C 123.2 110.562 123.189 110.783 122.4 109.6C 124.982 111.322 124.331 113.918 124.8 116.8L 121.6 114.4C 120.485 117.982 118.486 117.566 115.2 116.8L 116 118.4L 115.2 118.4L 112 117.6C 112.45 128.052 118.948 134.163 128.8 136C 127.534 133.612 125.589 131.794 124 129.6L 128.8 131.2L 129.6 128C 130.766 128.882 131.118 129.234 132 130.4C 133.051 129.786 132.986 129.851 133.6 128.8L 137.6 131.2C 137.688 129.246 137.942 127.502 138.4 125.6C 139.189 126.783 139.2 126.562 139.2 128L 142.4 127.2C 143.296 123.875 144.942 121.938 144 118.4C 141.706 118.18 140.342 117.242 138.4 116L 138.4 120C 137.231 118.552 134.882 107.506 133.6 113.6L 132.8 113.6C 132.347 111.681 132.039 109.969 132 108C 130.862 106.57 130.642 105.835 130.4 104L 131.2 104C 131.2 105.482 130.96 105.08 132 105.6C 132.882 104.434 133.234 104.082 134.4 103.2C 133.688 101.274 133.192 99.952 131.2 100L 132 96L 132.8 96C 133.726 100.593 136.81 106.314 140.8 108.8L 140 105.6C 143.144 108.238 145.194 111.65 147.2 115.2L 148 115.2C 148.841 111.475 149.594 108.666 149.6 104.8C 147.319 105.291 147.317 105.842 148 108C 143.298 105.649 143.511 101.414 142.4 96.8L 141.6 96.8L 141.6 101.6L 140.8 101.6L 139.2 89.6L 138.4 89.6C 137.717 91.504 137.067 93.1904 136.8 95.2L 136 95.2C 136.163 92.6392 136.838 90.4408 137.6 88C 139.178 89.1896 140.648 90.3032 142.4 91.2C 142.026 88.4824 141.372 86.3768 140 84C 141.166 84.8824 141.518 85.2344 142.4 86.4L 146.4 85.6C 146.136 83.1072 146.045 80.8872 146.4 78.4L 143.2 79.2C 143.2 77.7626 143.189 77.9828 142.4 76.8L 141.6 76.8L 140 83.2L 139.2 83.2C 137.669 77.8326 136.237 70.1873 131.2 67.2z"/>
<path style="stroke:none; fill:#ded2c1" d="M 153.866 67.7334C 153.822 67.7778 153.778 68.6222 154.134 68.2666C 154.178 68.2222 154.222 67.3778 153.866 67.7334z"/>
<path style="stroke:none; fill:#c2b8b0" d="M 11.2 68L 12 68.8L 11.2 68z"/>
<path style="stroke:none; fill:#5d4723" d="M 38.6666 68.5334C 38.6222 68.5778 38.5778 69.4222 38.9334 69.0666C 38.9778 69.0222 39.0222 68.1778 38.6666 68.5334z"/>
<path style="stroke:none; fill:#433939" d="M 21.6 68.8L 20 74.4L 17.6 73.6L 18.4 77.6C 22.189 75.8841 22.6768 72.6818 23.2 68.8L 21.6 68.8M 24.8 68.8L 24.8 72.8L 25.6 72.8C 25.5299 71.2287 25.4231 70.2152 24.8 68.8z"/>
<path style="stroke:none; fill:#372d1f" d="M 52.8 68.8C 53.9355 70.6828 54.941 71.6153 56.8 72.8C 55.9298 70.4023 55.2402 69.5587 52.8 68.8z"/>
<path style="stroke:none; fill:#6c5c30" d="M 90.4 72L 90.4 72.8C 87.268 73.4851 88.7544 76.5075 88.8 79.2C 92.5216 78.1429 92.9096 71.9149 97.6 69.6C 95.7336 68.574 87.8008 70.2356 90.4 72z"/>
<path style="stroke:none; fill:#372d1f" d="M 104.266 69.3334C 104.222 69.3778 104.178 70.2222 104.534 69.8666C 104.578 69.8222 104.622 68.9778 104.266 69.3334z"/>
<path style="stroke:none; fill:#615a53" d="M 105.066 69.3334C 105.022 69.3778 104.978 70.2222 105.334 69.8666C 105.378 69.8222 105.422 68.9778 105.066 69.3334z"/>
<path style="stroke:none; fill:#372d1f" d="M 105.866 69.3334C 105.822 69.3778 105.778 70.2222 106.134 69.8666C 106.178 69.8222 106.222 68.9778 105.866 69.3334z"/>
<path style="stroke:none; fill:#87745c" d="M 113.066 69.3334C 113.022 69.3778 112.978 70.2222 113.334 69.8666C 113.378 69.8222 113.422 68.9778 113.066 69.3334z"/>
<path style="stroke:none; fill:#c5b08e" d="M 153.6 68.8L 153.6 71.2L 154.4 71.2C 154.199 70.0388 154.148 69.7986 153.6 68.8z"/>
<path style="stroke:none; fill:#c2b8b0" d="M 10.4 69.6L 11.2 70.4L 10.4 69.6z"/>
<path style="stroke:none; fill:#87745c" d="M 26.4 69.6C 26.6587 74.6414 29.0078 79.1896 30.4 84L 31.2 84C 30.7233 80.2272 30.4004 76.61 30.4 72.8L 29.6 72.8L 29.6 76.8L 28.8 76.8C 28.2266 74.2994 27.6245 71.8527 26.4 69.6z"/>
<path style="stroke:none; fill:#433939" d="M 46.9334 69.8666C 46.5778 70.2222 47.4222 70.1778 47.4666 70.1334C 47.8222 69.7778 46.9778 69.8222 46.9334 69.8666z"/>
<path style="stroke:none; fill:#5d4723" d="M 56 69.6C 57.066 72.4687 59.3814 74.154 60.8 76.8C 63.5142 72.4342 60.3499 69.841 56 69.6z"/>
<path style="stroke:none; fill:#6c5c30" d="M 120 69.6C 119.564 70.9082 119.708 70.7639 118.4 71.2L 119.2 74.4L 118.4 74.4L 118.4 72.8L 117.6 72.8C 117.633 75.7619 118.211 78.0326 119.2 80.8L 120 80.8C 120.47 77.0808 121.494 73.1586 120 69.6z"/>
<path style="stroke:none; fill:#99875f" d="M 75.2 70.4C 72.8191 72.8214 73.01 76.6111 70.8185 78.6963C 69.9089 79.5618 57.2865 81.6616 65.6 84L 65.6 80.8C 71.8443 81.9408 72.8412 79.4702 73.6 73.6L 76.8 73.6C 76.3489 72.1984 76.0649 71.5664 75.2 70.4z"/>
<path style="stroke:none; fill:#433939" d="M 92 80L 94.4 79.2L 96.8 85.6L 102.4 87.2C 103.47 86.176 104.32 85.576 105.6 84.8C 104.986 83.7488 105.051 83.8144 104 83.2C 104.789 82.0168 104.8 82.2376 104.8 80.8C 101.665 80.22 99.12 80.0656 96 80.8L 96.8 77.6L 95.2 77.6L 97.6 72.8L 94.4 73.6L 96 70.4C 91.4352 72.0418 90.7592 75.6198 92 80M 112.8 70.4C 112.8 71.8374 112.811 71.6172 113.6 72.8L 111.2 72.8L 111.2 73.6C 110.778 75.097 110.303 76.1954 109.6 77.6L 112.8 78.4C 113.894 75.3922 114.815 73.1058 112.8 70.4z"/>
<path style="stroke:none; fill:#ded2c1" d="M 9.6 71.2L 10.4 72L 9.6 71.2z"/>
<path style="stroke:none; fill:#6c5c30" d="M 32 71.2C 31.7558 74.2986 31.1656 76.9651 32 80L 32.8 80C 32.8 77.0398 33.1522 73.9459 32 71.2z"/>
<path style="stroke:none; fill:#372d1f" d="M 33.6 71.2L 36 82.4L 36.8 82.4C 36.8083 79.3899 37.0504 76.5604 37.6 73.6C 36.2672 72.6386 35.0891 71.872 33.6 71.2M 100.8 71.2C 100.958 76.0174 102.863 76.5125 107.2 77.6L 108 73.6C 105.013 73.7051 103.37 72.5438 100.8 71.2M 108 71.2L 108 72.8L 109.6 72.8L 109.6 71.2L 108 71.2z"/>
<path style="stroke:none; fill:#6c5c30" d="M 114.4 71.2L 114.4 75.2L 115.2 75.2C 115.13 73.6287 115.023 72.6152 114.4 71.2z"/>
<path style="stroke:none; fill:#87745c" d="M 115.2 71.2L 115.2 75.2L 116 75.2C 115.93 73.6287 115.823 72.6152 115.2 71.2z"/>
<path style="stroke:none; fill:#99875f" d="M 9.86664 72.5334C 9.82224 72.5778 9.77776 73.4222 10.1334 73.0666C 10.1778 73.0222 10.2222 72.1778 9.86664 72.5334z"/>
<path style="stroke:none; fill:#372d1f" d="M 118.4 72L 118.4 74.4L 119.2 74.4C 118.999 73.2387 118.948 72.9987 118.4 72z"/>
<path style="stroke:none; fill:#ac9f8a" d="M 154.666 72.5334C 154.622 72.5778 154.578 73.4222 154.934 73.0666C 154.978 73.0222 155.022 72.1778 154.666 72.5334z"/>
<path style="stroke:none; fill:#433939" d="M 56.8 72.8C 57.445 75.5138 57.6564 77.3267 56.8 80C 61.329 78.2678 61.1422 74.6206 56.8 72.8z"/>
<path style="stroke:none; fill:#5d4723" d="M 97.6 72.8C 96.5976 74.4022 95.8064 75.8135 95.2 77.6C 96.508 78.036 96.364 77.8919 96.8 79.2L 97.6 79.2L 99.2 72.8L 97.6 72.8z"/>
<path style="stroke:none; fill:#c2b8b0" d="M 8.8 73.6L 8 76.8L 8.8 76.8C 8.94424 75.5484 9 74.8078 8.8 73.6z"/>
<path style="stroke:none; fill:#1b1610" d="M 21.6 79.2C 18.3761 80.3032 17.245 83.3792 16 86.4L 15.2 86.4C 14.029 84.8256 13.1149 84.5184 11.2 84L 12 80C 5.59293 85.144 6.32383 103.973 14.4 107.2C 13.732 110.572 12.071 115.352 15.2 117.6L 15.2 114.4C 18.0554 113.615 19.3916 112.172 20.8 109.6L 21.6 109.6C 20.0353 114.265 18.6118 117.391 19.2 122.4L 20 122.4C 20.436 121.092 20.2918 121.236 21.6 120.8C 18.6707 126.658 27.8935 129.226 27.2 132C 53.3427 131.368 34.695 98.3864 30.4 87.2L 25.6 86.4C 26.2617 82.228 25.7605 77.436 24 73.6C 21.8214 75.1685 21.6854 76.5595 21.6 79.2z"/>
<path style="stroke:none; fill:#87745c" d="M 111.2 73.6C 109.794 75.2098 108.867 76.465 108 78.4C 109.878 76.9814 111.267 75.9988 111.2 73.6z"/>
<path style="stroke:none; fill:#b69661" d="M 116 73.6C 114.929 75.46 114.144 77.1218 113.6 79.2C 115.537 77.7751 116.61 75.7861 117.6 73.6L 116 73.6z"/>
<path style="stroke:none; fill:#c2b8b0" d="M 155.2 73.6L 155.2 76.8L 156 76.8C 155.861 75.4518 155.746 74.8048 155.2 73.6z"/>
<path style="stroke:none; fill:#87745c" d="M 8.8 74.4L 8.8 76.8L 9.6 76.8C 9.39904 75.6387 9.34784 75.3987 8.8 74.4z"/>
<path style="stroke:none; fill:#ac9f8a" d="M 74.4 74.4C 73.1537 76.7487 72.5164 78.997 72 81.6L 72.8 81.6C 74.1067 79.2051 75.2169 77.0878 74.4 74.4z"/>
<path style="stroke:none; fill:#c5b08e" d="M 75.2 74.4L 74.4 78.4C 76.2093 78.5754 76.0206 78.4035 76.8 80L 77.6 80L 77.6 74.4L 75.2 74.4z"/>
<path style="stroke:none; fill:#856639" d="M 27.2 75.2C 27.4547 77.5016 27.696 78.6675 29.6 80C 28.9137 78.2719 28.234 76.738 27.2 75.2z"/>
<path style="stroke:none; fill:#5d4723" d="M 36.8 75.2C 36.8 84.0216 41.3518 91.452 41.6 100C 44.2059 97.7064 44.1258 96.048 43.2 92.8L 47.2 92.8C 47.5303 88.408 40.0846 78.453 36.8 75.2z"/>
<path style="stroke:none; fill:#ac9f8a" d="M 77.6 75.2C 77.6254 77.5 77.4338 79.2596 79.2 80.8C 78.815 78.8278 78.4708 77.0012 77.6 75.2z"/>
<path style="stroke:none; fill:#615a53" d="M 97.6 75.2C 97.3408 77.231 96.7344 78.8946 96 80.8C 98.1992 79.3933 98.5216 77.6873 99.2 75.2L 97.6 75.2z"/>
<path style="stroke:none; fill:#433939" d="M 107.2 76.8C 108.464 76.2531 108.622 76.1562 109.6 75.2C 108.336 75.7469 108.178 75.8438 107.2 76.8z"/>
<path style="stroke:none; fill:#856639" d="M 113.866 75.7334C 113.822 75.7778 113.778 76.6222 114.134 76.2666C 114.178 76.2222 114.222 75.3778 113.866 75.7334z"/>
<path style="stroke:none; fill:#99875f" d="M 116.8 75.2L 116.8 78.4L 117.6 78.4C 117.461 77.0518 117.346 76.4048 116.8 75.2z"/>
<path style="stroke:none; fill:#87745c" d="M 98.4 76C 99.6664 80.4792 103.272 80.1328 107.2 79.2L 107.2 78.4C 103.889 78.2951 101.44 77.1886 98.4 76z"/>
<path style="stroke:none; fill:#ac9f8a" d="M 115.2 76L 116 81.6L 116.8 81.6L 116.8 76L 115.2 76z"/>
<path style="stroke:none; fill:#372d1f" d="M 146.4 76C 145.583 79.3014 145.8 82.2672 146.4 85.6L 142.4 86.4C 141.681 84.7008 141.699 84.7192 140 84C 141.058 86.3768 141.854 88.656 142.4 91.2L 137.6 88C 136.556 90.4616 136.078 92.528 136 95.2L 136.8 95.2L 138.4 89.6L 139.2 89.6C 139.391 93.552 139.926 97.7424 140.8 101.6L 141.6 101.6L 141.6 96.8L 142.4 96.8C 143.246 101.338 142.887 106.462 148 108C 148.022 106.097 148.048 105.854 149.6 104.8C 149.426 106.149 149.421 106.653 149.6 108C 158.814 97.3784 150.714 87.0776 148 76L 146.4 76z"/>
<path style="stroke:none; fill:#ded2c1" d="M 156 76L 156 80L 156.8 80C 156.73 78.4288 156.623 77.4152 156 76z"/>
<path style="stroke:none; fill:#6c5c30" d="M 8 76.8L 8 80L 8.8 80C 8.66072 78.6518 8.5464 78.0048 8 76.8z"/>
<path style="stroke:none; fill:#433939" d="M 26.4 76.8L 27.2 80.8L 28 80.8C 27.691 79.0858 27.4039 78.2004 26.4 76.8z"/>
<path style="stroke:none; fill:#615a53" d="M 107.2 76.8L 105.6 77.6L 105.6 78.4C 107.09 78.1145 107.795 78.1798 107.2 76.8z"/>
<path style="stroke:none; fill:#99875f" d="M 112.8 76.8L 112 80.8L 112.8 80.8L 114.4 76.8L 112.8 76.8z"/>
<path style="stroke:none; fill:#9c8a80" d="M 155.2 76.8L 154.4 80C 155.725 78.8766 155.801 78.4372 155.2 76.8M 7.2 77.6L 7.2 80L 8 80C 7.79904 78.8387 7.74784 78.5987 7.2 77.6z"/>
<path style="stroke:none; fill:#c2b8b0" d="M 75.2 77.6C 70.3695 84.0592 66.824 91.2624 63.2 98.4C 66.6568 96.6096 67.6276 93.3088 68 89.6C 74.9258 89.216 72.0214 83.5448 76.8 80L 76.8 83.2L 81.6 84C 80.3072 81.548 78.0928 80.052 76.8 77.6L 75.2 77.6z"/>
<path style="stroke:none; fill:#6c5c30" d="M 85.6 77.6C 86.3192 79.2989 86.3008 79.2806 88 80C 87.2808 78.3011 87.2992 78.3194 85.6 77.6z"/>
<path style="stroke:none; fill:#433939" d="M 101.6 77.6L 102.4 78.4L 101.6 77.6z"/>
<path style="stroke:none; fill:#372d1f" d="M 102.4 80L 102.4 80.8L 104.8 80.8L 104 83.2C 108.347 83.0576 110.134 81.4768 112 77.6C 108.646 77.9432 105.698 79.4144 102.4 80z"/>
<path style="stroke:none; fill:#5d4723" d="M 98.4 78.4L 98.4 80L 100 80L 100 78.4L 98.4 78.4z"/>
<path style="stroke:none; fill:#87745c" d="M 111.2 78.4C 107.402 84.924 103.909 86.4416 96.8 85.6L 96.8 86.4C 101.932 88.5648 112.954 85.936 111.2 78.4z"/>
<path style="stroke:none; fill:#433939" d="M 117.334 78.6666C 116.978 79.0222 117.822 78.9778 117.866 78.9334C 118.222 78.5778 117.378 78.6222 117.334 78.6666z"/>
<path style="stroke:none; fill:#87745c" d="M 118.4 78.4C 117.769 82.1256 116.522 85.0408 117.6 88.8L 118.4 88.8C 118.428 86.2464 118.446 84.448 120 82.4C 119.616 80.832 119.25 79.7546 118.4 78.4z"/>
<path style="stroke:none; fill:#6c5c30" d="M 92 80C 93.4072 82.0608 94.3992 83.2552 96.8 84L 96.8 83.2C 95.6936 81.9072 95.108 80.7696 94.4 79.2C 92.9624 79.2 93.1832 79.2114 92 80z"/>
<path style="stroke:none; fill:#c5b08e" d="M 112 81.6L 116 82.4L 116 79.2C 113.884 79.5413 113.231 79.8567 112 81.6z"/>
<path style="stroke:none; fill:#856639" d="M 116.8 79.2C 117.347 80.464 117.444 80.6216 118.4 81.6L 118.4 79.2L 116.8 79.2z"/>
<path style="stroke:none; fill:#c2b8b0" d="M 6.4 80L 7.2 80.8L 6.4 80z"/>
<path style="stroke:none; fill:#615a53" d="M 28 80L 28.8 82.4L 29.6 82.4L 29.6 80L 28 80z"/>
<path style="stroke:none; fill:#ded2c1" d="M 75.2 80C 73.286 82.848 73.0122 84.6296 73.6 88L 74.4 88C 78.2855 84.7208 92.2552 97.824 93.6 102.4C 87.6704 101.961 83.2432 97.4568 80 92.8L 72.8 96L 72 103.2L 68 103.2C 68.0874 97.8136 70.7763 93.2304 73.6 88.8L 68 89.6C 66.5648 97.9032 57.005 98.7952 60 107.2L 63.2 106.4L 63.2 105.6L 60.8 105.6L 60.8 104.8C 68.5784 105.414 75.7304 105.25 83.2 106.4L 83.2 103.2C 90.2968 107.099 89.9328 117.811 89.6 124.8C 92.8904 126.862 95.6264 132.325 96.8 136L 101.6 135.2C 101.785 133.499 101.797 132.097 101.6 130.4L 104.8 131.2C 106.633 126.328 114.722 103.242 100 109.6L 99.2 106.4L 98.4 106.4L 98.4 120C 97.0504 119.039 96.9896 119.175 96.8 117.6L 92.8 117.6C 92.7992 113.008 90.1472 102.939 97.6 105.6C 95.864 96.256 87.4952 84.4264 76.8 83.2L 76.8 80L 75.2 80z"/>
<path style="stroke:none; fill:#b69661" d="M 79.2 80C 80.8696 82.2056 82.1328 83.2544 84.8 84L 84 87.2L 88 86.4L 87.2 88C 90.9328 85.2728 81.5728 80.7328 79.2 80z"/>
<path style="stroke:none; fill:#87745c" d="M 156 80L 156 85.6L 156.8 85.6C 156.785 83.5656 156.788 81.8656 156 80z"/>
<path style="stroke:none; fill:#6c5c30" d="M 6.4 80.8L 6.4 90.4L 7.2 90.4C 7.2 87.2136 7.64122 83.7576 6.4 80.8z"/>
<path style="stroke:none; fill:#b69661" d="M 65.6 80.8L 65.6 84.8C 68.1606 84.2368 69.7878 83.8448 71.2 81.6L 65.6 80.8M 89.6 80.8C 90.4984 83.7032 91.0304 85.7872 90.4 88.8C 92.0024 87.4128 91.9384 86.116 92 84L 92.8 84C 94.0288 87.7072 96.1528 91.5336 100 92.8C 99.2184 90.7696 98.3704 89.5264 100 88L 100 87.2C 98.4408 86.4512 97.96 86.0864 96.8 84.8L 93.6 85.6C 92.8688 83.1688 91.832 82.0064 89.6 80.8z"/>
<path style="stroke:none; fill:#ac9f8a" d="M 111.2 80.8C 111.384 82.9904 111.434 85.0136 111.2 87.2C 116.121 86.1264 115.295 82.5376 111.2 80.8z"/>
<path style="stroke:none; fill:#5d4723" d="M 116.8 80.8C 116.08 83.2328 116.006 85.4648 116 88L 116.8 88C 116.903 85.5584 117.515 83.124 116.8 80.8z"/>
<path style="stroke:none; fill:#ded2c1" d="M 5.86666 82.1336C 5.82223 82.1776 5.77778 83.0224 6.13334 82.6664C 6.1778 82.6224 6.22221 81.7776 5.86666 82.1336z"/>
<path style="stroke:none; fill:#372d1f" d="M 40.8 81.6C 41.395 83.744 42.0229 84.5752 44 85.6C 43.0695 83.8264 42.3309 82.8848 40.8 81.6z"/>
<path style="stroke:none; fill:#c5b08e" d="M 71.2 81.6C 69.0158 84.2992 66.5485 86.1432 65.6 89.6C 64.2918 89.164 64.4361 89.308 64 88C 58.702 89.4728 53.8073 94.0424 55.2 100C 51.7549 101.794 50.52 105.069 51.2 108.8C 54.1672 108.553 57.0318 108.697 60 108.8C 58.3794 103.017 59.2298 101.109 64 97.6L 64 96.8L 60.8 97.6C 61.5314 94.7656 62.4739 92.9984 64.8 91.2L 64 96C 66.6362 93.756 72.2121 85.028 71.2 81.6z"/>
<path style="stroke:none; fill:#87745c" d="M 91.2 81.6C 92.1784 82.556 92.336 82.6528 93.6 83.2C 92.6216 82.244 92.464 82.1472 91.2 81.6z"/>
<path style="stroke:none; fill:#b69661" d="M 110.4 81.6C 109.882 84.8488 107.519 86.604 106.4 89.6L 104 88.8C 102.733 91.2928 102.3 92.784 104.8 94.4L 104 96L 104 96.8C 105.438 96.8 105.218 96.7888 106.4 96C 105.994 94.0512 105.504 92.2608 104.8 90.4L 108 91.2L 107.2 88.8C 110.635 87.392 112.662 85.072 110.4 81.6z"/>
<path style="stroke:none; fill:#372d1f" d="M 34.4 82.4C 34.4 94.8768 40.8 105.702 40.8 118.4L 41.6 118.4C 41.6 107.41 41.0268 91.7072 34.4 82.4z"/>
<path style="stroke:none; fill:#856639" d="M 35.2 82.4C 37.4043 93.0896 42.3078 103.26 42.4 114.4C 44.9766 112.687 46.0466 110.846 47.2 108C 46.083 108.529 45.749 108.771 44.8 109.6C 42.7604 102.451 41.6885 86.6872 35.2 82.4z"/>
<path style="stroke:none; fill:#433939" d="M 52.8 82.4L 52 87.2C 54.0135 86.0368 54.7106 84.66 55.2 82.4L 52.8 82.4z"/>
<path style="stroke:none; fill:#5d4723" d="M 55.2 82.4C 53.8694 85.7312 51.8491 87.0608 48.8 88.8L 51.2 92C 53.6819 89.4936 56.3874 86.0168 55.2 82.4z"/>
<path style="stroke:none; fill:#99875f" d="M 115.466 82.9336C 115.422 82.9776 115.378 83.8224 115.734 83.4664C 115.778 83.4224 115.822 82.5776 115.466 82.9336z"/>
<path style="stroke:none; fill:#c5b08e" d="M 5.6 83.2L 5.6 88L 6.4 88C 6.36223 86.1976 6.29939 84.8416 5.6 83.2z"/>
<path style="stroke:none; fill:#6c5c30" d="M 32 83.2C 31.8124 86.2216 31.8228 88.5432 34.4 90.4C 33.9638 87.8344 33.2745 85.4712 32 83.2z"/>
<path style="stroke:none; fill:#c5b08e" d="M 81.6 83.2C 82.7344 90.3696 91.124 90.6656 95.0176 95.6456C 97.7104 99.0904 97.9696 105.46 100 109.6C 103.519 108.741 105.498 110.338 108.8 111.2C 109.51 103.122 113.408 95.3896 113.6 87.2C 111.223 87.352 109.392 87.8672 107.2 88.8C 107.2 90.2824 106.96 89.88 108 90.4L 108 91.2L 104.8 90.4C 105.473 93.0864 105.801 94.6328 104 96.8C 104.789 95.6168 104.8 95.8376 104.8 94.4C 102.174 91.9424 101.282 89.0672 97.6 88C 98.248 89.7776 98.9912 91.192 100 92.8C 96.576 90.928 94.5144 87.4464 92.8 84L 92 84L 92 88.8C 89.3864 87.9288 87.488 88.4488 88 86.4L 84 87.2L 84.8 84L 81.6 83.2z"/>
<path style="stroke:none; fill:#87745c" d="M 93.6 83.2L 93.6 85.6L 94.4 85.6C 95.5832 84.8112 95.3624 84.8 96.8 84.8L 96.8 84L 93.6 83.2z"/>
<path style="stroke:none; fill:#856639" d="M 105.6 83.2L 105.6 84.8L 107.2 84.8L 107.2 83.2L 105.6 83.2z"/>
<path style="stroke:none; fill:#99875f" d="M 108.8 83.2C 106.209 85.9656 103.844 87.7176 100 88C 101.472 89.5144 102.391 90.4376 104 88.8C 105.183 89.5888 104.962 89.6 106.4 89.6C 107.678 87.3296 109.59 85.6768 110.4 83.2L 108.8 83.2z"/>
<path style="stroke:none; fill:#b69661" d="M 55.2 94.4L 56 94.4C 56.4086 92.8384 56.5866 92.4344 57.6 91.2L 56.8 89.6C 59.4858 88.4832 61.0875 86.7472 63.2 84.8C 58.0667 82.8144 55.3305 90.376 55.2 94.4z"/>
<path style="stroke:none; fill:#ac9f8a" d="M 57.6 91.2C 60.389 89.4728 62.3751 88.7616 65.6 89.6L 68 84C 63.5907 84.3624 58.5594 86.4304 57.6 91.2z"/>
<path style="stroke:none; fill:#6c5c30" d="M 115.2 84L 114.4 88.8L 115.2 88.8C 115.51 86.9856 115.741 85.7312 115.2 84z"/>
<path style="stroke:none; fill:#372d1f" d="M 44 85.6C 45.2574 87.5112 46.7549 88.576 48.8 89.6C 47.4992 87.4088 46.3581 86.568 44 85.6z"/>
<path style="stroke:none; fill:#fcfcfc" d="M 68 103.2L 72 103.2L 72.8 96C 75.559 95.548 77.4904 93.9376 80 92.8C 82.5072 98.0744 87.664 102.207 93.6 102.4C 92.124 95.388 86.7168 94.6128 81.6312 90.3752C 80.2184 89.1976 78.835 86.1352 76.7685 86.2016C 71.2176 86.3776 67.5162 98.9488 68 103.2z"/>
<path style="stroke:none; fill:#615a53" d="M 102.4 87.2C 103.664 86.6528 103.822 86.556 104.8 85.6C 103.126 85.9248 103.184 85.7736 102.4 87.2z"/>
<path style="stroke:none; fill:#ac9f8a" d="M 156 85.6L 156 88.8L 156.8 88.8C 156.661 87.452 156.546 86.8048 156 85.6z"/>
<path style="stroke:none; fill:#372d1f" d="M 7.2 86.4L 7.2 96.8L 8 96.8C 8 93.3896 8.52888 89.5672 7.2 86.4z"/>
<path style="stroke:none; fill:#99875f" d="M 113.6 86.4L 113.6 88.8L 114.4 88.8C 114.199 87.6384 114.148 87.3984 113.6 86.4z"/>
<path style="stroke:none; fill:#433939" d="M 115.2 86.4L 115.2 88.8L 116 88.8C 115.799 87.6384 115.748 87.3984 115.2 86.4z"/>
<path style="stroke:none; fill:#ded2c1" d="M 5.06666 87.7336C 5.02223 87.7776 4.97778 88.6224 5.33334 88.2664C 5.37779 88.2224 5.42221 87.3776 5.06666 87.7336z"/>
<path style="stroke:none; fill:#372d1f" d="M 48.8 88.8L 51.2 88C 49.7774 87.236 49.5829 87.3872 48.8 88.8z"/>
<path style="stroke:none; fill:#9c8a80" d="M 5.6 88L 5.6 91.2L 6.4 91.2C 6.26071 89.852 6.14643 89.2048 5.6 88z"/>
<path style="stroke:none; fill:#6c5c30" d="M 155.2 88L 155.2 91.2L 156 91.2C 155.861 89.852 155.746 89.2048 155.2 88z"/>
<path style="stroke:none; fill:#87745c" d="M 113.6 88.8C 113.914 94.1744 114.134 100.525 110.4 104.8L 110.4 105.6C 111.349 106.429 111.683 106.671 112.8 107.2C 113.41 101.074 116.905 96.1648 118.4 90.4L 117.6 90.4L 116.8 92L 116 88.8L 115.2 88.8L 115.2 91.2L 114.4 91.2C 114.199 90.0384 114.148 89.7984 113.6 88.8z"/>
<path style="stroke:none; fill:#5d4723" d="M 114.4 88.8L 114.4 91.2L 115.2 91.2C 114.999 90.0384 114.948 89.7984 114.4 88.8z"/>
<path style="stroke:none; fill:#ded2c1" d="M 156.266 89.3336C 156.222 89.3776 156.178 90.2224 156.534 89.8664C 156.578 89.8224 156.622 88.9776 156.266 89.3336z"/>
<path style="stroke:none; fill:#6c5c30" d="M 37.6 89.6L 37.6 93.6L 38.4 93.6C 38.3299 92.0288 38.2231 91.0152 37.6 89.6M 47.2 92.8L 43.2 92.8C 44.4622 99.0992 42.1128 103.014 44.8 109.6C 46.1848 108.795 47.2424 108.363 48.8 108C 50.0247 101.706 51.8213 96.0544 50.4 89.6C 48.2988 90.2712 47.871 90.6992 47.2 92.8z"/>
<path style="stroke:none; fill:#ded2c1" d="M 4.8 90.4L 4.8 93.6L 5.6 93.6C 5.46071 92.252 5.34643 91.6048 4.8 90.4z"/>
<path style="stroke:none; fill:#5d4723" d="M 6.4 90.4L 6.4 96.8L 7.2 96.8C 7.19422 94.532 7.27818 92.4904 6.4 90.4z"/>
<path style="stroke:none; fill:#433939" d="M 33.6 90.4C 34.7618 95.9576 37.1084 101.143 39.2 106.4L 40 106.4C 38.8735 100.957 37.3919 94.6 33.6 90.4z"/>
<path style="stroke:none; fill:#6c5c30" d="M 5.6 91.2L 5.6 94.4L 6.4 94.4C 6.26071 93.052 6.14643 92.4048 5.6 91.2z"/>
<path style="stroke:none; fill:#ac9f8a" d="M 54.4 91.2C 53.1527 96.0416 50.5107 99.6304 50.4 104.8L 52 104.8C 52.5868 102.514 53.3354 101.447 55.2 100C 54.8854 96.8496 56.5693 94.3496 56.8 91.2L 56 91.2L 56 94.4L 55.2 94.4C 55.0607 93.052 54.9464 92.4048 54.4 91.2M 63.2 91.2C 61.9728 93.3392 61.1878 95.1576 60.8 97.6C 63.9486 96.3648 64.5025 94.4496 64.8 91.2L 63.2 91.2z"/>
<path style="stroke:none; fill:#433939" d="M 146.4 91.2C 146.939 93.0376 147.172 93.4192 148.8 94.4L 148.8 91.2L 146.4 91.2z"/>
<path style="stroke:none; fill:#ac9f8a" d="M 155.2 91.2L 156 92L 155.2 91.2z"/>
<path style="stroke:none; fill:#856639" d="M 113.066 92.5336C 113.022 92.5776 112.978 93.4224 113.334 93.0664C 113.378 93.0224 113.422 92.1776 113.066 92.5336z"/>
<path style="stroke:none; fill:#5d4723" d="M 113.6 92C 112.513 96.2008 111.39 100.455 111.2 104.8L 112 104.8C 112.817 100.839 114.811 95.9392 113.6 92z"/>
<path style="stroke:none; fill:#372d1f" d="M 117.6 100.8C 113.981 103.038 113.976 110.334 112.8 114.4L 120.8 118.4C 121.25 116.959 121.459 115.902 121.6 114.4L 124.8 116.8C 124.554 113.881 125.816 110.332 122.4 109.6L 123.2 112L 120 112.8C 121.09 110.106 121.989 108.843 124.8 108C 125.784 102.622 124.594 97.4184 125.6 92C 120.031 92.7256 117.003 94.7568 117.6 100.8z"/>
<path style="stroke:none; fill:#9c8a80" d="M 154.4 92L 154.4 94.4L 155.2 94.4C 154.999 93.2384 154.948 92.9984 154.4 92z"/>
<path style="stroke:none; fill:#99875f" d="M 52.8 93.6L 52 96.8L 52.8 96.8C 53.1722 95.2552 53.2594 95.0472 52.8 93.6z"/>
<path style="stroke:none; fill:#87745c" d="M 112 93.6L 112 97.6L 112.8 97.6C 112.73 96.0288 112.623 95.0152 112 93.6z"/>
<path style="stroke:none; fill:#ac9f8a" d="M 5.6 94.4L 6.4 95.2L 5.6 94.4z"/>
<path style="stroke:none; fill:#c5b08e" d="M 39.2 94.4L 39.2 96L 40.8 96L 40.8 94.4L 39.2 94.4z"/>
<path style="stroke:none; fill:#6c5c30" d="M 116 94.4L 116 96.8L 116.8 96.8C 116.599 95.6384 116.548 95.3984 116 94.4z"/>
<path style="stroke:none; fill:#615a53" d="M 154.666 94.9336C 154.622 94.9776 154.578 95.8224 154.934 95.4664C 154.978 95.4224 155.022 94.5776 154.666 94.9336z"/>
<path style="stroke:none; fill:#ded2c1" d="M 155.466 94.9336C 155.422 94.9776 155.378 95.8224 155.734 95.4664C 155.778 95.4224 155.822 94.5776 155.466 94.9336z"/>
<path style="stroke:none; fill:#5d4723" d="M 132 96L 131.2 100C 133.141 100 133.423 101.518 134.4 103.2C 132.701 103.919 132.719 103.901 132 105.6L 131.2 104L 130.4 104C 130.534 105.922 130.558 106.768 132 108C 131.742 110.218 131.998 111.509 132.8 113.6L 133.6 113.6L 133.6 111.2C 137.338 113.02 135.437 117.266 138.4 120L 138.4 116L 141.6 119.2C 143.13 118.481 143.909 118.34 145.6 118.4C 144.921 115.543 143.849 113.881 141.6 112L 142.4 116.8C 140.147 114.289 138.564 112.046 137.6 108.8L 138.4 108.8L 138.4 110.4L 139.2 110.4C 138.414 105.325 134.958 100.141 132 96z"/>
<path style="stroke:none; fill:#87745c" d="M 154.4 96L 154.4 98.4L 155.2 98.4C 154.999 97.2384 154.948 96.9984 154.4 96z"/>
<path style="stroke:none; fill:#9c8a80" d="M 6.4 96.8L 6.4 100L 7.2 100C 7.06071 98.652 6.94643 98.0048 6.4 96.8z"/>
<path style="stroke:none; fill:#6c5c30" d="M 7.2 96.8L 7.2 100.8L 8 100.8C 7.92993 99.2288 7.82314 98.2152 7.2 96.8z"/>
<path style="stroke:none; fill:#372d1f" d="M 8 97.6L 8.8 102.4L 9.6 102.4C 9.46048 100.31 9.26552 99.2456 8 97.6z"/>
<path style="stroke:none; fill:#5d4723" d="M 39.2 97.6L 39.2 100L 40 100C 39.799 98.8384 39.7478 98.5984 39.2 97.6z"/>
<path style="stroke:none; fill:#99875f" d="M 111.2 97.6L 111.2 100.8L 112 100.8C 111.861 99.452 111.746 98.8048 111.2 97.6z"/>
<path style="stroke:none; fill:#6c5c30" d="M 114.4 98.4L 114.4 100.8L 115.2 100.8C 114.999 99.6384 114.948 99.3984 114.4 98.4z"/>
<path style="stroke:none; fill:#c2b8b0" d="M 154.4 98.4L 155.2 99.2L 154.4 98.4z"/>
<path style="stroke:none; fill:#5d4723" d="M 8 99.2L 8.8 105.6L 9.6 105.6C 9.40904 103.264 9.10224 101.27 8 99.2z"/>
<path style="stroke:none; fill:#87745c" d="M 153.6 99.2L 154.4 100L 153.6 99.2z"/>
<path style="stroke:none; fill:#ded2c1" d="M 6.4 100L 7.2 100.8L 6.4 100z"/>
<path style="stroke:none; fill:#c2b8b0" d="M 153.6 100L 154.4 100.8L 153.6 100z"/>
<path style="stroke:none; fill:#99875f" d="M 7.2 100.8L 8 101.6L 7.2 100.8z"/>
<path style="stroke:none; fill:#ac9f8a" d="M 152.8 100.8L 152.8 103.2L 153.6 103.2C 153.399 102.038 153.348 101.798 152.8 100.8z"/>
<path style="stroke:none; fill:#c2b8b0" d="M 7.2 101.6L 8 102.4L 7.2 101.6z"/>
<path style="stroke:none; fill:#99875f" d="M 49.6 101.6L 49.6 105.6L 50.4 105.6C 50.3299 104.029 50.2231 103.015 49.6 101.6z"/>
<path style="stroke:none; fill:#615a53" d="M 152 101.6L 152 104L 152.8 104C 152.599 102.838 152.548 102.598 152 101.6z"/>
<path style="stroke:none; fill:#99875f" d="M 8 102.4L 8 104.8L 8.8 104.8C 8.59904 103.638 8.54784 103.398 8 102.4z"/>
<path style="stroke:none; fill:#433939" d="M 9.6 102.4L 9.6 107.2L 10.4 107.2C 10.3622 105.398 10.2994 104.042 9.6 102.4z"/>
<path style="stroke:none; fill:#372d1f" d="M 10.4 102.4C 10.6146 112.799 14.1611 116.233 19.2216 124.26C 21.6666 128.138 22.2742 132.275 28 131.2C 24.6109 128.286 21.0314 125.626 21.6 120.8C 20.5486 121.414 20.6143 121.349 20 122.4L 19.2 122.4C 18.9314 117.562 20.6157 114.194 21.6 109.6L 20.8 109.6C 19.1098 111.74 17.6964 113.284 15.2 114.4L 15.2 117.6C 12.7588 114.717 14.172 110.798 14.4 107.2C 12.262 105.901 11.5705 104.552 10.4 102.4z"/>
<path style="stroke:none; fill:#c2b8b0" d="M 83.2 103.2L 83.2 106.4C 75.8516 104.421 68.6466 105.137 60.8 104.8L 60.8 105.6L 63.2 105.6L 63.2 106.4C 61.3784 106.266 61.0519 106.241 60 104.8L 59.2 104.8C 60.4817 112.479 71.646 105.368 76.8 106.369C 80.7752 107.142 84.6328 110.22 88.8 111.2L 86.4 124C 87.8024 125.064 88.536 125.798 89.6 127.2C 88.1736 127.984 88.3248 127.926 88 129.6L 92 130.4L 91.2 134.4C 92.5368 135.87 93.4208 137.461 94.4 139.2C 96.8512 138.521 99.0504 137.72 101.6 137.6L 105.6 131.2L 101.6 130.4L 101.6 135.2C 99.836 135.275 98.4848 135.485 96.8 136C 96.3776 132.651 92.9288 125.514 89.6 124.8C 90.4944 118.563 90.5464 105.63 83.2 103.2z"/>
<path style="stroke:none; fill:#99875f" d="M 110.666 103.734C 110.622 103.778 110.578 104.622 110.934 104.266C 110.978 104.222 111.022 103.378 110.666 103.734z"/>
<path style="stroke:none; fill:#6c5c30" d="M 112.8 103.2L 112.8 106.4L 113.6 106.4C 113.461 105.052 113.346 104.405 112.8 103.2z"/>
<path style="stroke:none; fill:#fcfcfc" d="M 92.8 117.6L 96.8 117.6C 96.7616 119.464 96.6376 119.205 98.4 120C 98.7032 116.018 99.4824 111.078 97.9176 107.247C 97.2 105.488 94.6432 103.246 92.9464 105.298C 90.9432 107.722 92.7976 114.549 92.8 117.6z"/>
<path style="stroke:none; fill:#ded2c1" d="M 152.266 104.534C 152.222 104.578 152.178 105.422 152.534 105.066C 152.578 105.022 152.622 104.178 152.266 104.534M 8 104.8L 8 107.2L 8.8 107.2C 8.59904 106.038 8.54784 105.798 8 104.8z"/>
<path style="stroke:none; fill:#99875f" d="M 109.6 104.8L 109.6 107.2L 110.4 107.2C 110.199 106.038 110.148 105.798 109.6 104.8z"/>
<path style="stroke:none; fill:#856639" d="M 8.8 105.6L 8.8 108L 9.6 108C 9.39904 106.838 9.34784 106.598 8.8 105.6z"/>
<path style="stroke:none; fill:#ac9f8a" d="M 48.8 105.6C 48.3788 110.938 47.3106 116.24 47.2 121.6C 50.3253 119.499 50.9192 116.664 55.2 116.8C 55.8241 112.824 52.1124 107.726 48.8 105.6M 65.6 107.2L 65.6 108C 70.745 108 75.6895 108.397 80.8 108.8C 76.8194 104.32 71.0094 107.199 65.6 107.2z"/>
<path style="stroke:none; fill:#5d4723" d="M 110.4 105.6C 109.758 108.294 109.608 110.836 109.6 113.6L 110.4 113.6L 112.8 107.2L 110.4 105.6z"/>
<path style="stroke:none; fill:#615a53" d="M 140 105.6L 140.8 108.8C 139.128 108.49 139.431 108.493 139.2 110.4L 138.4 110.4L 138.4 108.8L 137.6 108.8C 138.238 112.323 139.585 114.589 142.4 116.8L 141.6 112C 143.342 114.062 144.632 115.883 145.6 118.4L 142.4 117.6L 142.4 118.4C 143.686 119.56 144.051 120.041 144.8 121.6L 145.6 121.6C 148.278 117.398 150.169 113.865 150.4 108.8L 149.6 108.8L 148 115.2L 147.2 115.2C 145.698 111.458 143.576 107.598 140 105.6z"/>
<path style="stroke:none; fill:#87745c" d="M 151.466 106.134C 151.422 106.178 151.378 107.022 151.734 106.666C 151.778 106.622 151.822 105.778 151.466 106.134z"/>
<path style="stroke:none; fill:#615a53" d="M 150.666 106.934C 150.622 106.978 150.578 107.822 150.934 107.466C 150.978 107.422 151.022 106.578 150.666 106.934z"/>
<path style="stroke:none; fill:#5d4723" d="M 9.6 107.2L 11.2 115.2L 12 115.2C 11.7785 112.398 11.7965 109.09 9.6 107.2z"/>
<path style="stroke:none; fill:#856639" d="M 108.8 107.2L 108.8 111.2L 109.6 111.2C 109.53 109.629 109.423 108.615 108.8 107.2z"/>
<path style="stroke:none; fill:#433939" d="M 119.2 107.2L 119.2 110.4L 120 110.4L 120.8 107.2L 119.2 107.2z"/>
<path style="stroke:none; fill:#ac9f8a" d="M 151.2 107.2L 152 108L 151.2 107.2M 8.8 108L 8.8 110.4L 9.6 110.4C 9.39904 109.238 9.34784 108.998 8.8 108z"/>
<path style="stroke:none; fill:#5d4723" d="M 41.6 108L 41.6 116L 42.4 116C 42.3997 113.269 42.6619 110.53 41.6 108z"/>
<path style="stroke:none; fill:#99875f" d="M 47.2 108C 46.2092 109.759 45.3521 111.318 44 112.8L 44 113.6C 47.3566 113.019 48.0334 111.151 48.8 108L 47.2 108M 52 108.8C 52.8754 110.686 53.4677 111.679 55.2 112.8C 55.7389 110.962 55.9722 110.581 57.6 109.6C 55.6114 108.292 54.3334 108.356 52 108.8z"/>
<path style="stroke:none; fill:#9c8a80" d="M 61.6 108.8L 61.6 109.6C 65.8414 111.865 78.026 117.438 79.2 110.4L 83.2 110.4C 77.5918 106.502 67.9909 107.614 61.6 108.8z"/>
<path style="stroke:none; fill:#87745c" d="M 150.4 108L 150.4 110.4L 151.2 110.4C 150.999 109.238 150.948 108.998 150.4 108z"/>
<path style="stroke:none; fill:#856639" d="M 9.6 108.8L 9.6 111.2L 10.4 111.2C 10.199 110.038 10.1478 109.798 9.6 108.8z"/>
<path style="stroke:none; fill:#ac9f8a" d="M 57.6 110.4L 61.6 109.6C 59.7596 108.867 58.8986 108.897 57.6 110.4z"/>
<path style="stroke:none; fill:#87745c" d="M 55.2 109.6C 55.4706 115.918 54.2185 122.573 55.2 128.8C 48.5017 129.917 53.4665 135.883 54.4 140L 59.2 140L 59.2 139.2C 53.6483 134.572 57.6382 128.322 57.3284 122.369C 57.1286 118.531 55.6098 113.842 57.6 110.4C 56.6014 109.852 56.3613 109.801 55.2 109.6z"/>
<path style="stroke:none; fill:#615a53" d="M 60 109.6L 59.2 116L 60 116C 62.4446 113.286 64.415 112.842 68 112.8C 65.7065 110.946 62.927 109.987 60 109.6z"/>
<path style="stroke:none; fill:#c5b08e" d="M 83.2 109.6L 83.2 110.4L 86.4 110.4C 85.1952 109.854 84.548 109.739 83.2 109.6z"/>
<path style="stroke:none; fill:#5d4723" d="M 56 110.4C 56.4767 114.173 56.7996 117.79 56.8 121.6L 57.6 121.6C 57.9411 119.355 58.4281 118.442 60 116.8L 59.2 114.4C 58.1602 114.92 58.4 114.518 58.4 116L 57.6 116C 58.1904 114.31 58.2463 113.834 60 113.6L 60.8 110.4L 56 110.4z"/>
<path style="stroke:none; fill:#87745c" d="M 79.2 110.4C 78.4526 112.902 77.7013 113.653 75.2 114.4C 77.1874 116.432 78.7811 116.71 81.6 116.8L 81.6 112.8C 83.5288 113.162 84.2792 113.418 85.6 112L 86.4 112L 86.4 119.2L 87.2 119.2L 87.2 111.2L 79.2 110.4z"/>
<path style="stroke:none; fill:#ac9f8a" d="M 83.2 110.4L 83.2 111.2L 86.4 111.2C 85.1952 110.654 84.548 110.539 83.2 110.4z"/>
<path style="stroke:none; fill:#ded2c1" d="M 150.4 110.4L 150.4 112.8L 151.2 112.8C 150.999 111.638 150.948 111.398 150.4 110.4z"/>
<path style="stroke:none; fill:#c2b8b0" d="M 9.6 111.2L 10.4 112L 9.6 111.2z"/>
<path style="stroke:none; fill:#ac9f8a" d="M 87.2 111.2C 87.1976 115.404 86.8056 126.534 84.8 129.6C 87.2576 133.331 89.892 136.839 92 140.8C 95.5552 140.108 98.344 139.586 100.8 136.8L 94.4 139.2C 93.6048 137.224 92.9072 135.671 91.2 134.4L 92 130.4L 88 129.6C 88.5472 128.336 88.644 128.178 89.6 127.2C 88.6768 125.401 88.1992 124.923 86.4 124C 87.7192 119.774 88.2456 115.586 88.8 111.2L 87.2 111.2M 108.8 111.2L 108.8 113.6L 109.6 113.6C 109.399 112.438 109.348 112.198 108.8 111.2z"/>
<path style="stroke:none; fill:#856639" d="M 110.4 111.2L 109.6 114.4C 111.758 113.938 111.831 113.391 112 111.2L 110.4 111.2z"/>
<path style="stroke:none; fill:#9c8a80" d="M 47.2 112C 43.8854 114.698 41.8606 115.256 41.6 120L 46.4 119.2L 46.4 120L 41.6 120.8C 41.7278 122.736 41.6071 123.842 40.8 125.6L 44.8 127.2C 44.271 126.083 44.0285 125.749 43.2 124.8C 45.6132 123.656 49.029 122.665 49.6 120L 48.8 120C 48.3639 121.308 48.5082 121.164 47.2 121.6C 47.3385 118.375 48.4408 115.042 47.2 112z"/>
<path style="stroke:none; fill:#615a53" d="M 85.6 112C 84.0784 112.925 83.4224 112.925 81.6 112.8L 81.6 116.8C 83.34 116.332 84.1952 115.542 85.6 114.4L 85.6 120.8L 86.4 120.8C 86.4 117.84 86.752 114.746 85.6 112z"/>
<path style="stroke:none; fill:#1b1610" d="M 58.4 112.8L 57.6 116L 58.4 116C 58.6469 114.594 58.7252 114.127 58.4 112.8z"/>
<path style="stroke:none; fill:#5d4723" d="M 61.6 112.8L 61.6 113.6C 66.4472 113.74 71.1687 115.389 76 116C 72.5802 112.507 66.2839 112.813 61.6 112.8z"/>
<path style="stroke:none; fill:#87745c" d="M 68 112.8L 68 113.6L 74.4 113.6C 72.3098 112.722 70.2684 112.806 68 112.8z"/>
<path style="stroke:none; fill:#99875f" d="M 149.6 112.8L 150.4 113.6L 149.6 112.8z"/>
<path style="stroke:none; fill:#c2b8b0" d="M 10.6666 114.134C 10.6222 114.178 10.5778 115.022 10.9334 114.666C 10.9778 114.622 11.0222 113.778 10.6666 114.134z"/>
<path style="stroke:none; fill:#433939" d="M 60.8 115.2C 66.0134 114.563 71.5453 116.386 76.8 116.8C 73.3086 114.944 63.7066 111.874 60.8 115.2z"/>
<path style="stroke:none; fill:#c5b08e" d="M 149.6 113.6L 150.4 114.4L 149.6 113.6z"/>
<path style="stroke:none; fill:#1b1610" d="M 80.8 125.6L 76 125.6L 76 124C 78.5578 123.791 80.7976 123.301 83.2 122.4C 80.556 120.642 77.2518 118.71 74.2642 117.611L 67.2 115.775C 62.4709 114.01 56.0148 116.282 58.5834 122.403C 61.796 130.06 79.7392 138.939 80.8 125.6z"/>
<path style="stroke:none; fill:#5d4723" d="M 84 114.4C 82.692 116.436 81.6056 116.623 79.2 116.8L 79.2 117.6L 84 118.4L 84 119.2L 79.2 119.2L 79.2 120.8L 84 120.8L 84 124L 84.8 124C 85.3992 120.771 85.5976 117.681 85.6 114.4L 84 114.4z"/>
<path style="stroke:none; fill:#9c8a80" d="M 109.6 114.4L 110.4 117.6L 111.2 117.6L 112 114.4L 109.6 114.4z"/>
<path style="stroke:none; fill:#615a53" d="M 112 114.4C 111.19 116.298 110.702 117.959 110.4 120C 111.826 119.216 111.675 119.274 112 117.6L 116 118.4L 115.2 116.8L 116 116.8C 117.396 117.512 118.5 117.962 120 118.4C 117.695 116.091 115.15 115.149 112 114.4z"/>
<path style="stroke:none; fill:#99875f" d="M 11.4666 115.734C 11.4222 115.778 11.3778 116.622 11.7334 116.266C 11.7778 116.222 11.8222 115.378 11.4666 115.734z"/>
<path style="stroke:none; fill:#c2b8b0" d="M 149.066 115.734C 149.022 115.778 148.978 116.622 149.334 116.266C 149.378 116.222 149.422 115.378 149.066 115.734z"/>
<path style="stroke:none; fill:#6c5c30" d="M 12 116L 12 118.4L 12.8 118.4C 12.599 117.238 12.5478 116.998 12 116z"/>
<path style="stroke:none; fill:#99875f" d="M 49.6 122.4C 46.9453 122.583 45.3795 123.282 43.2 124.8C 45.041 129.2 45.5778 134.454 49.1148 138.014C 53.6986 142.626 62.8436 140.8 68.8 140.8L 68.8 140C 63.8929 139.898 59.309 139.79 54.4 140C 53.8245 135.68 49.0778 130.661 55.2 128.8C 54.9799 124.549 55.392 120.208 56 116C 51.3636 116.395 49.7556 117.622 49.6 122.4z"/>
<path style="stroke:none; fill:#372d1f" d="M 67.2 116L 67.2 116.8C 73.2559 116.926 77.8638 119.458 84 119.2C 78.8737 116.586 72.8859 116.016 67.2 116z"/>
<path style="stroke:none; fill:#ac9f8a" d="M 109.6 116L 109.6 120L 110.4 120C 110.33 118.429 110.223 117.415 109.6 116z"/>
<path style="stroke:none; fill:#c5b08e" d="M 11.2 116.8L 12 117.6L 11.2 116.8z"/>
<path style="stroke:none; fill:#433939" d="M 80 117.6L 80 118.4L 83.2 118.4C 81.9952 117.854 81.348 117.739 80 117.6z"/>
<path style="stroke:none; fill:#615a53" d="M 126.666 118.134C 126.622 118.178 126.578 119.022 126.934 118.666C 126.978 118.622 127.022 117.778 126.666 118.134z"/>
<path style="stroke:none; fill:#c2b8b0" d="M 148 117.6L 148.8 118.4L 148 117.6z"/>
<path style="stroke:none; fill:#ac9f8a" d="M 12 118.4L 12.8 119.2L 12 118.4z"/>
<path style="stroke:none; fill:#87745c" d="M 12.8 118.4C 13.2376 119.9 13.688 121.004 14.4 122.4L 15.2 122.4C 14.5589 120.717 14.0027 119.73 12.8 118.4z"/>
<path style="stroke:none; fill:#5d4723" d="M 40.8 118.4L 40 123.2L 40.8 123.2C 41.223 121.318 41.4486 120.191 40.8 118.4z"/>
<path style="stroke:none; fill:#ac9f8a" d="M 147.2 118.4L 148 119.2L 147.2 118.4z"/>
<path style="stroke:none; fill:#433939" d="M 13.6 119.2C 15.4641 122.955 17.4469 126.226 20.8 128.8C 19.8664 124.112 17.9912 121.316 13.6 119.2z"/>
<path style="stroke:none; fill:#87745c" d="M 41.6 120L 41.6 120.8L 46.4 120C 44.6086 119.351 43.4824 119.577 41.6 120z"/>
<path style="stroke:none; fill:#ac9f8a" d="M 146.4 119.2L 147.2 120L 146.4 119.2M 12.8 120L 13.6 120.8L 12.8 120z"/>
<path style="stroke:none; fill:#c2b8b0" d="M 109.066 120.534C 109.022 120.578 108.978 121.422 109.334 121.066C 109.378 121.022 109.422 120.178 109.066 120.534z"/>
<path style="stroke:none; fill:#87745c" d="M 109.866 120.534C 109.822 120.578 109.778 121.422 110.134 121.066C 110.178 121.022 110.222 120.178 109.866 120.534z"/>
<path style="stroke:none; fill:#c2b8b0" d="M 110.934 120.266C 110.578 120.622 111.422 120.578 111.466 120.534C 111.822 120.178 110.978 120.222 110.934 120.266z"/>
<path style="stroke:none; fill:#9c8a80" d="M 145.6 120L 146.4 120.8L 145.6 120z"/>
<path style="stroke:none; fill:#372d1f" d="M 80.8 120.8L 80.8 121.6C 82.2376 121.6 82.0168 121.611 83.2 122.4C 80.9328 123.124 79.659 123.582 78.4 125.6C 80.028 126.581 80.2608 126.962 80.8 128.8L 81.6 128.8C 82.284 126.013 83.6808 123.7 84 120.8L 80.8 120.8z"/>
<path style="stroke:none; fill:#ded2c1" d="M 145.6 120.8L 146.4 121.6L 145.6 120.8z"/>
<path style="stroke:none; fill:#c2b8b0" d="M 13.6 121.6L 14.4 122.4L 13.6 121.6z"/>
<path style="stroke:none; fill:#856639" d="M 40.8 121.6L 39.2 125.6L 42.4 124.8C 41.9914 123.238 41.8134 122.834 40.8 121.6z"/>
<path style="stroke:none; fill:#6c5c30" d="M 57.6 121.6C 57.0352 126.036 54.0216 133.111 56.8228 137.346C 58.3466 139.649 62.3531 139.554 64.8 139.896C 72.7622 141.006 80.2032 141.262 88 139.2C 87.2704 134.33 83.4768 131.578 79.2 129.6C 78.2995 132.002 77.8086 134.242 77.6 136.8L 74.4 136.8L 74.4 137.6L 80 139.2L 80 140L 68.8 139.2L 68.8 138.4L 72 136.8L 72 136C 67.2576 136.599 63.138 136.88 58.4 136L 58.4 134.4L 61.6 133.6C 61.1639 132.292 61.3082 132.436 60 132C 61.0021 130.386 61.0487 129.902 60.8 128C 59.667 128.378 59.349 128.651 58.4 129.6C 59.1202 126.566 59.5407 124.165 57.6 121.6z"/>
<path style="stroke:none; fill:#ac9f8a" d="M 108.8 121.6L 108.8 124.8L 109.6 124.8L 110.4 121.6L 108.8 121.6z"/>
<path style="stroke:none; fill:#87745c" d="M 112 121.6L 112 124.8L 112.8 124.8C 112.661 123.452 112.546 122.805 112 121.6z"/>
<path style="stroke:none; fill:#ac9f8a" d="M 144.8 121.6L 145.6 122.4L 144.8 121.6M 14.4 122.4L 15.2 123.2L 14.4 122.4z"/>
<path style="stroke:none; fill:#99875f" d="M 15.2 123.2L 16 124L 15.2 123.2z"/>
<path style="stroke:none; fill:#c5b08e" d="M 108 123.2L 108 126.4L 108.8 126.4C 108.661 125.052 108.546 124.405 108 123.2z"/>
<path style="stroke:none; fill:#c2b8b0" d="M 144 123.2L 144.8 124L 144 123.2z"/>
<path style="stroke:none; fill:#99875f" d="M 16 124L 16.8 124.8L 16 124z"/>
<path style="stroke:none; fill:#5d4723" d="M 59.2 124L 58.4 129.6C 59.533 129.222 59.851 128.949 60.8 128C 60.8198 130.135 60.7616 131.637 61.6 133.6L 58.4 134.4L 58.4 136C 62.9918 137.094 67.3873 136.856 72 136L 72 136.8L 68.8 138.4L 68.8 139.2L 80 140L 80 139.2C 78.1393 138.496 76.3491 138.006 74.4 137.6L 74.4 136.8L 77.6 136.8L 78.4 130.4L 77.6 130.4C 76.3026 132.31 75.5424 133.713 75.2 136L 68 132.8L 68 136C 62.4186 133.139 63.112 128.235 59.2 124z"/>
<path style="stroke:none; fill:#433939" d="M 76 124L 76 125.6L 78.4 125.6L 78.4 124L 76 124z"/>
<path style="stroke:none; fill:#615a53" d="M 83.2 124C 82.3312 126.411 81.336 128.694 80.8 131.2L 84 132.8C 83.984 129.924 84.3056 126.665 83.2 124z"/>
<path style="stroke:none; fill:#9c8a80" d="M 84 124C 83.7656 126.186 83.816 128.21 84 130.4L 86.4 129.6C 85.7448 127.603 85.1208 125.771 84 124z"/>
<path style="stroke:none; fill:#6c5c30" d="M 142.4 124L 142.4 126.4L 143.2 126.4L 144 124L 142.4 124z"/>
<path style="stroke:none; fill:#ded2c1" d="M 16 124.8L 16.8 125.6L 16 124.8z"/>
<path style="stroke:none; fill:#87745c" d="M 16.8 124.8L 17.6 125.6L 16.8 124.8z"/>
<path style="stroke:none; fill:#ac9f8a" d="M 112 124.8L 112.8 125.6L 112 124.8z"/>
<path style="stroke:none; fill:#c5b08e" d="M 143.2 124.8L 144 125.6L 143.2 124.8z"/>
<path style="stroke:none; fill:#c2b8b0" d="M 16.8 125.6L 17.6 126.4L 16.8 125.6z"/>
<path style="stroke:none; fill:#ded2c1" d="M 38.4 125.6L 38.4 126.4L 41.6 126.4C 40.3952 125.854 39.7482 125.739 38.4 125.6z"/>
<path style="stroke:none; fill:#5d4723" d="M 81.6 125.6L 81.6 128L 82.4 128C 82.1992 126.838 82.148 126.598 81.6 125.6z"/>
<path style="stroke:none; fill:#99875f" d="M 107.466 126.134C 107.422 126.178 107.378 127.022 107.734 126.666C 107.778 126.622 107.822 125.778 107.466 126.134z"/>
<path style="stroke:none; fill:#87745c" d="M 112.8 125.6L 113.6 126.4L 112.8 125.6z"/>
<path style="stroke:none; fill:#6c5c30" d="M 138.4 125.6C 137.822 127.534 137.642 129.178 137.6 131.2L 134.4 128.8L 133.6 133.6L 128.8 132C 128.558 133.835 128.338 134.57 127.2 136L 127.2 136.8C 133.958 135.926 137.697 132.746 141.6 127.2C 139.733 127.238 139.558 126.958 138.4 125.6z"/>
<path style="stroke:none; fill:#ac9f8a" d="M 17.6 126.4L 18.4 127.2L 17.6 126.4z"/>
<path style="stroke:none; fill:#ded2c1" d="M 37.6 126.4L 38.4 127.2L 37.6 126.4z"/>
<path style="stroke:none; fill:#ac9f8a" d="M 41.6 126.4C 42.8811 129.07 43.7996 131.302 46.4 132.8C 45.4054 130.678 44.5694 128.674 44 126.4L 41.6 126.4M 106.4 126.4L 106.4 128L 108 128C 107.564 126.692 107.708 126.836 106.4 126.4z"/>
<path style="stroke:none; fill:#9c8a80" d="M 113.6 126.4L 114.4 127.2L 113.6 126.4z"/>
<path style="stroke:none; fill:#ac9f8a" d="M 18.4 127.2L 19.2 128L 18.4 127.2z"/>
<path style="stroke:none; fill:#9c8a80" d="M 36.8 127.2L 37.6 128L 36.8 127.2z"/>
<path style="stroke:none; fill:#87745c" d="M 114.4 127.2L 115.2 128L 114.4 127.2z"/>
<path style="stroke:none; fill:#c2b8b0" d="M 141.6 127.2L 142.4 128L 141.6 127.2z"/>
<path style="stroke:none; fill:#99875f" d="M 19.2 128L 20 128.8L 19.2 128z"/>
<path style="stroke:none; fill:#9c8a80" d="M 105.6 128L 105.6 129.6C 106.908 129.164 106.764 129.308 107.2 128L 105.6 128z"/>
<path style="stroke:none; fill:#c2b8b0" d="M 114.4 128L 115.2 128.8L 114.4 128z"/>
<path style="stroke:none; fill:#5d4723" d="M 129.6 128L 128.8 131.2L 124 129.6C 125.19 132.034 126.407 133.128 128.8 134.4C 130.069 132.231 131.326 133.16 133.6 133.6L 134.4 128.8L 133.6 128.8C 133.164 130.108 133.308 129.964 132 130.4C 132 128.962 131.989 129.182 131.2 128L 129.6 128z"/>
<path style="stroke:none; fill:#c2b8b0" d="M 140.8 128L 141.6 128.8L 140.8 128z"/>
<path style="stroke:none; fill:#99875f" d="M 20 128.8L 20.8 129.6L 20 128.8z"/>
<path style="stroke:none; fill:#615a53" d="M 35.2 128.8L 36 129.6L 35.2 128.8z"/>
<path style="stroke:none; fill:#372d1f" d="M 62.4 128.8C 62.7794 132.944 64.097 134.594 68 136L 68 132.8C 70.4277 133.99 72.5668 135.306 75.2 136C 75.7211 134.053 76.1281 133.374 77.6 132L 77.6 131.2C 71.4062 132.232 68.0783 131.702 62.4 128.8z"/>
<path style="stroke:none; fill:#ac9f8a" d="M 104.8 128.8C 105.125 130.474 104.974 130.416 106.4 131.2C 105.853 129.936 105.756 129.778 104.8 128.8z"/>
<path style="stroke:none; fill:#c2b8b0" d="M 106.4 128.8L 107.2 129.6L 106.4 128.8z"/>
<path style="stroke:none; fill:#9c8a80" d="M 115.2 128.8L 116 129.6L 115.2 128.8z"/>
<path style="stroke:none; fill:#c2b8b0" d="M 140 128.8L 140.8 129.6L 140 128.8z"/>
<path style="stroke:none; fill:#99875f" d="M 20.8 129.6L 21.6 130.4L 20.8 129.6z"/>
<path style="stroke:none; fill:#615a53" d="M 34.4 129.6L 35.2 130.4L 34.4 129.6z"/>
<path style="stroke:none; fill:#9c8a80" d="M 116 129.6L 116.8 130.4L 116 129.6z"/>
<path style="stroke:none; fill:#c5b08e" d="M 139.2 129.6L 140 130.4L 139.2 129.6z"/>
<path style="stroke:none; fill:#ac9f8a" d="M 21.6 130.4L 22.4 131.2L 21.6 130.4z"/>
<path style="stroke:none; fill:#5d4723" d="M 22.4 130.4C 23.3782 131.356 23.536 131.453 24.8 132C 24.0158 130.574 24.0739 130.725 22.4 130.4z"/>
<path style="stroke:none; fill:#87745c" d="M 33.6 130.4L 34.4 131.2L 33.6 130.4z"/>
<path style="stroke:none; fill:#99875f" d="M 84 130.4C 84.9808 134.311 88.076 139.566 92 140.8C 90.4376 136.532 88.176 132.441 84 130.4z"/>
<path style="stroke:none; fill:#9c8a80" d="M 116.8 130.4L 117.6 131.2L 116.8 130.4z"/>
<path style="stroke:none; fill:#ded2c1" d="M 138.4 130.4L 139.2 131.2L 138.4 130.4M 22.4 131.2L 23.2 132L 22.4 131.2z"/>
<path style="stroke:none; fill:#87745c" d="M 32 131.2L 32.8 132L 32 131.2z"/>
<path style="stroke:none; fill:#c2b8b0" d="M 32.8 131.2L 33.6 132L 32.8 131.2z"/>
<path style="stroke:none; fill:#615a53" d="M 117.6 131.2C 118.578 132.156 118.736 132.253 120 132.8C 119.022 131.844 118.864 131.747 117.6 131.2z"/>
<path style="stroke:none; fill:#ac9f8a" d="M 137.6 131.2L 138.4 132L 137.6 131.2M 24 132L 24.8 132.8L 24 132z"/>
<path style="stroke:none; fill:#615a53" d="M 24.8 132L 24.8 132.8L 29.6 132.8C 27.9583 132.101 26.6022 132.038 24.8 132z"/>
<path style="stroke:none; fill:#87745c" d="M 29.6 132L 30.4 132.8L 29.6 132z"/>
<path style="stroke:none; fill:#ac9f8a" d="M 30.4 132L 31.2 132.8L 30.4 132M 103.2 132L 104 132.8L 103.2 132z"/>
<path style="stroke:none; fill:#c2b8b0" d="M 117.6 132L 118.4 132.8L 117.6 132M 136.8 132L 137.6 132.8L 136.8 132z"/>
<path style="stroke:none; fill:#ded2c1" d="M 24.8 132.8L 24.8 133.6L 28.8 133.6C 27.3848 132.977 26.3713 132.87 24.8 132.8z"/>
<path style="stroke:none; fill:#c2b8b0" d="M 45.6 132.8L 46.4 136L 47.2 136C 46.7488 134.598 46.4649 133.966 45.6 132.8z"/>
<path style="stroke:none; fill:#ded2c1" d="M 118.4 132.8L 119.2 133.6L 118.4 132.8z"/>
<path style="stroke:none; fill:#99875f" d="M 119.2 132.8L 120 133.6L 119.2 132.8z"/>
<path style="stroke:none; fill:#ac9f8a" d="M 136 132.8L 136.8 133.6L 136 132.8z"/>
<path style="stroke:none; fill:#99875f" d="M 120 133.6L 120.8 134.4L 120 133.6z"/>
<path style="stroke:none; fill:#9c8a80" d="M 135.2 133.6L 136 134.4L 135.2 133.6z"/>
<path style="stroke:none; fill:#87745c" d="M 120.8 134.4L 121.6 135.2L 120.8 134.4z"/>
<path style="stroke:none; fill:#c2b8b0" d="M 121.334 135.466C 120.978 135.822 121.822 135.778 121.866 135.734C 122.222 135.378 121.378 135.422 121.334 135.466z"/>
<path style="stroke:none; fill:#5d4723" d="M 122.4 135.2L 122.4 136L 127.2 136C 125.558 135.301 124.202 135.238 122.4 135.2z"/>
<path style="stroke:none; fill:#ac9f8a" d="M 133.6 135.2L 134.4 136L 133.6 135.2z"/>
<path style="stroke:none; fill:#c2b8b0" d="M 47.2 136L 48 136.8L 47.2 136z"/>
<path style="stroke:none; fill:#87745c" d="M 123.2 136L 123.2 136.8L 127.2 136.8C 125.785 136.177 124.771 136.07 123.2 136z"/>
<path style="stroke:none; fill:#c5b08e" d="M 129.6 136L 129.6 136.8L 132.8 136.8C 131.595 136.254 130.948 136.139 129.6 136z"/>
<path style="stroke:none; fill:#ac9f8a" d="M 48.8 138.4C 49.9598 139.686 50.4411 140.051 52 140.8C 50.8402 139.514 50.3589 139.149 48.8 138.4z"/>
<path style="stroke:none; fill:#87745c" d="M 84 140L 84 140.8L 89.6 140.8L 88.8 138.4L 84 140z"/>
<path style="stroke:none; fill:#ded2c1" d="M 93.6 140L 93.6 140.8L 96 140.8C 95.0016 140.252 94.7616 140.201 93.6 140z"/>
<path style="stroke:none; fill:#ac9f8a" d="M 52 140.8L 52 141.6L 56.8 141.6C 55.1583 140.901 53.8022 140.838 52 140.8z"/>
<path style="stroke:none; fill:#c2b8b0" d="M 68.8 140.8L 68.8 141.6L 86.4 141.6C 81.4384 139.518 74.1618 140.8 68.8 140.8z"/>
<path style="stroke:none; fill:#ded2c1" d="M 86.4 140.8L 86.4 141.6L 90.4 141.6C 88.9848 140.977 87.9712 140.87 86.4 140.8z"/>
</g>
</svg>